<?xml version="1.0" encoding="UTF-8"?>
<svg width="42px" height="33px" viewBox="0 0 42 33" version="1.1" xmlns="http://www.w3.org/2000/svg" xmlns:xlink="http://www.w3.org/1999/xlink">
    <title>Doc</title>
    <g id="Page-1" stroke="none" stroke-width="1" fill="none" fill-rule="evenodd">
        <g id="7992" transform="translate(-412.000000, -931.000000)" fill="#FCBA30">
            <g id="Doc" transform="translate(412.940000, 931.982000)">
                <path d="M5.409,10.746 L22.281,10.746 C22.558,10.746 22.782,10.521 22.782,10.245 C22.782,9.968 22.558,9.744 22.281,9.744 L5.409,9.744 C5.131,9.744 4.908,9.968 4.908,10.245 C4.908,10.521 5.131,10.746 5.409,10.746" id="Fill-636"></path>
                <path d="M22.281,23.555 L5.409,23.555 C5.131,23.555 4.908,23.779 4.908,24.055 C4.908,24.332 5.131,24.556 5.409,24.556 L22.281,24.556 C22.558,24.556 22.782,24.332 22.782,24.055 C22.782,23.779 22.558,23.555 22.281,23.555" id="Fill-637"></path>
                <path d="M39.078,4.707 L33.005,10.78 L30.128,7.904 L36.287,1.746 C36.288,1.745 36.289,1.744 36.29,1.743 C36.296,1.737 36.901,1.143 37.69,1.13899668 C38.18,1.138 38.651,1.363 39.106,1.812 C39.115,1.823 39.123,1.832 39.13,1.839 C39.559,2.274 39.774,2.735 39.768,3.207 C39.758,4.039 39.092,4.694 39.078,4.707 Z M31.958,12.181 L28.728,8.951 L29.059,8.619 L32.289,11.849 L31.958,12.181 Z M25.388,18.396 L22.512,15.52 L28.373,9.66 L31.249,12.536 L25.388,18.396 Z M22.066,19.664 L21.137,19.838 L21.072,19.85 L21.246,18.844 L21.462,19.061 L21.93,16.355 L24.568,18.993 L21.862,19.459 L22.066,19.664 Z M26.687,18.514 L26.687,30.377 L1.002,30.377 L1.002,1.001 L26.687,1.001 L26.687,9.928 L21.095,15.52 L21.497,15.921 L21.361,16.705 L5.409,16.705 C5.131,16.705 4.908,16.929 4.908,17.206 C4.908,17.482 5.131,17.706 5.409,17.706 L21.188,17.706 L20.765,20.16 L25.001,19.426 L25.388,19.813 L27.188,18.013 L26.687,18.514 Z M39.856,1.149 C39.846,1.137 39.833,1.123 39.825,1.115 C39.172,0.462 38.448,0.132 37.685,0.137 C36.495,0.143 35.645,0.97 35.579,1.038 L29.066,7.549 C28.972,7.643 28.919,7.771 28.919,7.904 C28.919,7.948 28.927,7.99 28.938,8.032 L28.55,8.419 L28.373,8.243 L27.689,8.927 L27.689,-4.26325641e-14 L-2.84217094e-14,-4.26325641e-14 L-2.84217094e-14,31.379 L27.689,31.379 L27.689,17.512 L32.666,12.536 L32.489,12.358 L32.876,11.97 C32.919,11.981 32.962,11.989 33.005,11.989 C33.133,11.989 33.262,11.94 33.36,11.842 L39.777,5.424 C39.817,5.386 40.749,4.485 40.7703407,3.231 C40.782,2.485 40.477,1.788 39.856,1.149 L39.856,1.149 Z" id="Fill-638"></path>
                <path d="M29.046,6.264 C29.218,6.436 29.497,6.436 29.668,6.264 L34.288,1.646 C34.458,1.474 34.458,1.196 34.288,1.024 L34.281,1.018 C34.109,0.845 33.831,0.845 33.659,1.018 L29.04,5.635 C28.869,5.807 28.869,6.085 29.04,6.257 L29.046,6.264" id="Fill-639"></path>
            </g>
        </g>
    </g>
</svg>