<?xml version="1.0" encoding="UTF-8"?>
<svg width="30px" height="33px" viewBox="0 0 30 33" version="1.1" xmlns="http://www.w3.org/2000/svg" xmlns:xlink="http://www.w3.org/1999/xlink">
    <title>Choosing</title>
    <g id="Page-1" stroke="none" stroke-width="1" fill="none" fill-rule="evenodd">
        <g id="7992" transform="translate(-418.000000, -543.000000)" fill="#FCBA30">
            <path d="M438.315,556.962 L444.046,545.697 C444.047,545.667 444.043,545.638 444.043,545.607 C444.883,545.714 445.5,546.007 445.88,546.671 C447.412,549.346 446.045,552.21 444.254,553.998 C443.234,555.018 442.003,555.851 440.695,556.408 C440.321,556.568 439.951,556.691 439.581,556.786 C439.371,556.813 439.166,556.855 438.966,556.913 C438.869,556.929 438.772,556.947 438.674,556.958 C438.616,556.962966 438.483,556.964 438.315,556.962 Z M437.108,556.449 L433.75,562.761 C433.604,562.701 433.446,562.672 433.287,562.672 C433.129,562.672 432.971,562.701 432.825,562.76 L423.97,546.117 C423.882,545.952 423.84,545.776 423.845,545.602 C423.846,545.589 423.85,545.575 423.852,545.563 C423.856,545.535 423.86,545.509 423.864,545.481 C423.865,545.475 423.866,545.468 423.867,545.461 C423.874,545.428 423.884,545.395 423.892,545.36 C423.899,545.333 423.904,545.306 423.913,545.278 C423.934,545.216 423.961,545.153 423.997,545.094 C424.052,545.002 424.119,544.919 424.195,544.847 C424.271,544.774 424.357,544.713 424.451,544.662 C424.56,544.604 424.679,544.563 424.805,544.536 C424.823,544.533 424.841,544.529 424.86,544.526 C424.933,544.515 425.007,544.506 425.083,544.506 L441.491,544.506 C441.494,544.506 441.497,544.507 441.5,544.507 C441.501,544.507 441.502,544.507 441.502,544.507 C441.577,544.508 441.648,544.516 441.719,544.527 C441.738,544.53 441.757,544.534 441.775,544.538 C441.843,544.552 441.91,544.569 441.973,544.594 C441.975,544.594 441.977,544.595 441.979,544.596 L441.98,544.596 C442.03,544.615 442.078,544.637 442.125,544.662 C442.261,544.735 442.381,544.835 442.479,544.954 C442.497,544.976 442.512,545.001 442.529,545.023 C442.545,545.047 442.564,545.069 442.579,545.094 C442.667,545.242 442.711,545.401 442.72,545.563 C442.726,545.689 442.713,545.817 442.672,545.941 C442.653,546.001 442.636,546.06 442.606,546.117 L437.108,556.449 Z M436.13,569.912 C436.314,569.935 436.495,569.959 436.671,569.986 C436.955,570.029 437.225,570.078 437.486,570.13 C437.818,570.196 438.129,570.27 438.423,570.348 C438.765,570.439 439.08,570.538 439.368,570.643 C439.606,570.729 439.832,570.816 440.031,570.909 C440.033,570.909 440.034,570.91 440.035,570.911 C440.204,570.989 440.353,571.068 440.493,571.149 C441.145,571.523 441.498,571.922 441.498,572.273 C441.498,573.33 438.375,574.804 433.288,574.804 C428.201,574.804 425.077,573.33 425.077,572.273 C425.077,571.296 427.756,569.964 432.187,569.771 L432.187,571.203 C432.196,571.524 432.321,571.771 432.506,571.941 C432.997,572.392 433.91,572.312 434.253,571.703 C434.299,571.622 434.337,571.535 434.36,571.436 L434.36,569.769 C434.986,569.795 435.577,569.844 436.13,569.912 Z M427.987,556.959 C427.866,556.945 427.748,556.924 427.629,556.903 C427.464,556.858 427.295,556.822 427.122,556.798 C426.734,556.701 426.348,556.575 425.957,556.408 C424.647,555.851 423.417,555.018 422.396,553.998 C420.606,552.21 419.239,549.347 420.771,546.671 C421.134,546.035 421.717,545.743 422.502,545.626 L428.27,556.963 C428.137,556.964 428.036,556.963 427.987,556.959 Z M438.851,558.249 C439.651,558.151 440.422,557.942 441.206,557.608 C442.667,556.986 444.039,556.057 445.176,554.921 C447.308,552.792 448.91,549.336 447.012,546.022 C446.201,544.606 444.761,544.306 443.608,544.258 C443.131,543.582 442.355,543.181 441.491,543.181 L425.083,543.181 C424.218,543.181 423.442,543.584 422.965,544.261 C421.825,544.319 420.432,544.639 419.639,546.022 C417.741,549.336 419.343,552.792 421.475,554.921 C422.612,556.057 423.984,556.986 425.445,557.608 C426.221,557.939 426.986,558.147 427.778,558.246 C428.355,558.548 428.685,559.106 428.398,559.946 C427.928,561.325 426.55,561.799 425.24,561.346 C424.495,561.087 424.174,562.269 424.915,562.524 C426.958,563.231 429.091,562.162 429.645,560.05 C429.674,559.939 429.694,559.832 429.71,559.727 L432.183,564.375 L432.183,566.035 C432.184,566.06 432.187,566.083 432.187,566.108 L432.187,568.791 C428.087,568.976 424.099,570.183 424.099,572.273 C424.099,574.553 428.833,575.782 433.288,575.782 C437.742,575.782 442.476,574.553 442.476,572.273 C442.476,570.178 438.47,568.971 434.36,568.79 L434.36,567.086 C434.36,566.968 434.373,566.855 434.392,566.75 L434.392,564.375 L436.913,559.638 C436.928,559.771 436.951,559.908 436.988,560.05 C437.535,562.164 439.68,563.229 441.718,562.524 C442.458,562.269 442.14,561.087 441.393,561.346 C440.082,561.799 438.706,561.327 438.234,559.946 C437.95,559.111 438.277,558.553 438.851,558.249 L438.851,558.249 Z" id="Choosing"></path>
        </g>
    </g>
</svg>