<?xml version="1.0" encoding="UTF-8"?>
<svg width="36px" height="44px" viewBox="0 0 36 44" version="1.1" xmlns="http://www.w3.org/2000/svg" xmlns:xlink="http://www.w3.org/1999/xlink">
    <title>Camplanytens</title>
    <g id="Page-1" stroke="none" stroke-width="1" fill="none" fill-rule="evenodd">
        <g id="7992" transform="translate(-932.000000, -279.000000)" fill="#FCBA30">
            <g id="Camplanytens" transform="translate(932.751044, 279.179024)">
                <path d="M14.7239559,8.53797626 L14.7239559,4.68097626 C14.7239559,4.04597626 14.4509559,3.52997626 14.1159559,3.52997626 C13.7799559,3.52997626 13.5069559,4.04597626 13.5069559,4.68097626 L13.5069559,5.41497626 C14.4799559,7.17497626 14.6239559,9.00297626 13.7179559,10.3909763 C13.6539559,10.4879763 13.5799559,10.5769763 13.5069559,10.6669763 L13.5069559,17.6109763 L14.7239559,17.6109763 L14.7239559,12.1389763 C14.7199559,12.1299763 14.7139559,12.1199763 14.7099559,12.1109763 C14.2759559,11.0029763 14.2889559,9.77897626 14.7239559,8.53797626" id="Fill-368"></path>
                <path d="M26.2859559,13.4149763 C22.2989559,14.9769763 18.2929559,14.5939763 16.5679559,12.6659763 L26.4059559,8.66597626 L31.2989559,9.35397626 C31.3299559,9.35797626 31.3599559,9.36097626 31.3899559,9.36097626 C31.7099559,9.36097626 31.9889559,9.12497626 32.0349559,8.79897626 C32.0849559,8.44197626 31.8369559,8.11297626 31.4799559,8.06197626 L28.8129559,7.68697626 L32.8969559,6.02697626 C33.1139559,8.66497626 30.3939559,11.8039763 26.2859559,13.4149763 Z M16.9029559,7.21897626 C18.1079559,5.58097626 20.0319559,4.18597626 22.3179559,3.28997626 C23.9929559,2.63297626 25.6709559,2.31997626 27.1819559,2.31997626 C29.6829559,2.31997626 31.7269559,3.17897626 32.5409559,4.76297626 L22.7699559,8.73597626 L23.5529559,5.63297626 C23.6419559,5.28297626 23.4299559,4.92797626 23.0809559,4.84097626 C22.7309559,4.75197626 22.3769559,4.96397626 22.2889559,5.31397626 L21.2709559,9.34597626 L15.8899559,11.5339763 C15.4369559,10.2559763 15.7929559,8.72897626 16.9029559,7.21897626 Z M33.8939559,4.59197626 C32.5359559,1.13197626 27.1289559,0.0019762643 21.8419559,2.07497626 C19.3289559,3.05997626 17.2019559,4.61297626 15.8529559,6.44597626 C15.3439559,7.13797626 14.9679559,7.84097626 14.7239559,8.53797626 C14.2889559,9.77897626 14.2759559,11.0029763 14.7099559,12.1109763 C14.7139559,12.1199763 14.7199559,12.1299763 14.7239559,12.1389763 C15.6309559,14.4079763 18.2849559,15.6669763 21.5019559,15.6669763 C23.1599559,15.6669763 24.9679559,15.3319763 26.7619559,14.6299763 C32.0499559,12.5559763 35.2489559,8.05397626 33.8939559,4.59197626 L33.8939559,4.59197626 Z" id="Fill-369"></path>
                <path d="M21.6069559,18.9149763 C24.1929559,18.9149763 26.2959559,20.8899763 26.2959559,23.3189763 L26.2959559,27.1809763 L3.79395591,27.1809763 L3.79395591,23.3189763 C3.79395591,20.8899763 5.89695591,18.9149763 8.48195591,18.9149763 L21.6069559,18.9149763 Z M3.79395591,32.3249763 L26.2959559,32.3249763 L26.2959559,28.4849763 L3.79395591,28.4849763 L3.79395591,32.3249763 Z M26.2959559,37.2229763 C26.2959559,39.6519763 24.1929559,41.6279763 21.6069559,41.6279763 L8.48195591,41.6279763 C5.89695591,41.6279763 3.79395591,39.6519763 3.79395591,37.2229763 L3.79395591,33.6289763 L26.2959559,33.6289763 L26.2959559,37.2229763 Z M8.48195591,17.6109763 C5.17795591,17.6109763 2.48995591,20.1709763 2.48995591,23.3189763 L2.48995591,37.2229763 C2.48995591,40.3709763 5.17795591,42.9319763 8.48195591,42.9319763 L21.6069559,42.9319763 C24.9119559,42.9319763 27.5999559,40.3709763 27.5999559,37.2229763 L27.5999559,32.9799763 C27.5999559,32.9789763 27.5999559,32.9779763 27.5999559,32.9769763 L27.5999559,27.8329763 C27.5999559,27.8319763 27.5999559,27.8309763 27.5999559,27.8299763 L27.5999559,23.3189763 C27.5999559,20.1709763 24.9119559,17.6109763 21.6069559,17.6109763 L8.48195591,17.6109763 L8.48195591,17.6109763 Z" id="Fill-370"></path>
                <path d="M12.9979559,8.55397626 L11.2239559,7.33997626 C11.2189559,7.27397626 11.2069559,7.20897626 11.1819559,7.14497626 L10.0619559,4.32897626 C9.92895591,3.99497626 9.54895591,3.83197626 9.21495591,3.96497626 C8.87995591,4.09797626 8.71695591,4.47697626 8.84995591,4.81197626 L9.34295591,6.05097626 L2.85995591,1.61197626 C3.33795591,1.41097626 3.91095591,1.30397626 4.55895591,1.30397626 C4.58995591,1.30397626 4.62195591,1.30497626 4.65295591,1.30497626 C6.13395591,1.32797626 7.77795591,1.88197626 9.28095591,2.86297626 L9.28195591,2.86297626 C11.6849559,4.43297626 13.1459559,6.78297626 12.9979559,8.55397626 Z M9.66995591,10.9149763 C8.18895591,10.8909763 6.54495591,10.3379763 5.04095591,9.35597626 C2.08095591,7.42297626 0.548955911,4.30197626 1.69795591,2.54197626 C1.71995591,2.50897626 1.74895591,2.47997626 1.77195591,2.44697626 L12.5229559,9.80997626 C11.9639559,10.5409763 10.9609559,10.9359763 9.66995591,10.9149763 Z M13.5069559,5.41497626 C12.7749559,4.08997626 11.5739559,2.80297626 9.99495591,1.77097626 C8.28795591,0.655976264 6.39795591,0.0279762643 4.67295591,0.000976264302 C3.26295591,-0.0220237357 2.08495591,0.361976264 1.25595591,1.08897626 C1.23195591,1.10897626 1.20895591,1.13097626 1.18695591,1.15497626 C0.968955911,1.35697626 0.769955911,1.57797626 0.605955911,1.82897626 C-0.982044089,4.26197626 0.651955911,8.04797626 4.32895591,10.4479763 C6.03595591,11.5639763 7.92495591,12.1919763 9.64995591,12.2189763 C9.68895591,12.2189763 9.72695591,12.2189763 9.76595591,12.2189763 C11.3979559,12.2189763 12.7059559,11.6699763 13.5069559,10.6669763 C13.5799559,10.5769763 13.6539559,10.4879763 13.7179559,10.3909763 C14.6239559,9.00297626 14.4799559,7.17497626 13.5069559,5.41497626 L13.5069559,5.41497626 Z" id="Fill-371"></path>
            </g>
        </g>
    </g>
</svg>