<?xml version="1.0" encoding="UTF-8"?>
<svg width="40px" height="38px" viewBox="0 0 40 38" version="1.1" xmlns="http://www.w3.org/2000/svg" xmlns:xlink="http://www.w3.org/1999/xlink">
    <title>Quelaty</title>
    <g id="Page-1" stroke="none" stroke-width="1" fill="none" fill-rule="evenodd">
        <g id="7992" transform="translate(-478.000000, -475.000000)" fill="#FCBA30">
            <g id="Quelaty" transform="translate(478.678397, 475.608000)">
                <path d="M19.0386033,7.968 L21.4486033,7.968 L21.4486033,19.954 L23.9616033,19.954 L23.9616033,21.717 L16.1456033,21.717 L16.1456033,19.954 L18.6686033,19.954 L18.6686033,10.41 L16.1496033,12.402 L15.6856033,10.288 L19.0386033,7.968 Z M15.5356033,12.646 C15.5806033,12.844 15.7206033,13.002 15.9126033,13.072 C16.1036033,13.138 16.3186033,13.102 16.4716033,12.979 L18.0166033,11.756 L18.0166033,19.301 L16.0796033,19.301 C15.9256033,19.301 15.7746033,19.364 15.6666033,19.472 C15.5566033,19.581 15.4936033,19.733 15.4936033,19.888 L15.4936033,21.783 C15.4936033,21.938 15.5566033,22.09 15.6636033,22.196 C15.7726033,22.306 15.9246033,22.37 16.0796033,22.37 L24.0266033,22.37 C24.1846033,22.37 24.3336033,22.308 24.4396033,22.199 C24.5516033,22.088 24.6136033,21.941 24.6136033,21.783 L24.6136033,19.888 C24.6136033,19.731 24.5516033,19.583 24.4436033,19.475 C24.3336033,19.363 24.1856033,19.301 24.0266033,19.301 L22.1006033,19.301 L22.1006033,7.903 C22.1006033,7.745 22.0396033,7.596 21.9326033,7.491 C21.8216033,7.378 21.6746033,7.316 21.5146033,7.316 L19.0186033,7.316 C18.8976033,7.316 18.7816033,7.352 18.6846033,7.42 L15.2786033,9.777 C15.0816033,9.913 14.9876033,10.152 15.0386033,10.385 L15.5356033,12.646 L15.5356033,12.646 Z" id="Fill-714"></path>
                <path d="M9.74360331,22.364 L10.3146033,22.293 C10.3666033,22.33 10.4166033,22.371 10.4576033,22.423 C10.5776033,22.572 10.6296033,22.763 10.6026033,22.961 L10.2586033,25.536 C10.1976033,25.988 10.2996033,26.391 10.5456033,26.67 C10.7196033,26.871 10.9576033,26.993 11.2256033,27.033 C11.5676033,27.209 11.9976033,27.208 12.4366033,27.022 L14.8246033,26.006 C14.9156033,25.967 15.0096033,25.948 15.1026033,25.948 C15.2306033,26.028 15.3346033,26.147 15.3896033,26.299 L15.4196033,26.378 L6.72860331,34.214 L6.59860331,30.31 C6.58960331,30.024 6.36660331,29.79 6.08160331,29.767 L1.90960331,29.428 L9.74360331,22.364 Z M7.46360331,20.856 C7.28960331,20.842 7.22060331,20.791 7.21260331,20.782 C7.21160331,20.778 7.21060331,20.77 7.21260331,20.757 C7.21660331,20.72 7.23860331,20.645 7.31460331,20.538 L8.81660331,18.419 C8.88960331,18.316 8.95060331,18.208 8.99960331,18.096 C9.14860331,17.76 9.19060331,17.389 9.11860331,17.022 C9.02260331,16.535 8.73360331,16.118 8.30760331,15.848 L6.11260331,14.458 C6.04160331,14.413 5.99560331,14.371 5.96760331,14.339 C5.96760331,14.338 5.96660331,14.337 5.96560331,14.337 C5.93760331,14.304 5.92760331,14.283 5.92660331,14.276 C5.92960331,14.261 5.97460331,14.188 6.13060331,14.109 L8.44360331,12.93 C8.89460331,12.701 9.21960331,12.311 9.36160331,11.834 C9.49560331,11.378 9.44460331,10.9 9.21960331,10.477 C9.20960331,10.456 9.20060331,10.436 9.18860331,10.416 L7.89260331,8.166 C7.82660331,8.053 7.81260331,7.977 7.81060331,7.941 C7.80960331,7.928 7.81060331,7.921 7.81160331,7.917 C7.81360331,7.914 7.82260331,7.909 7.83660331,7.903 C7.86960331,7.886 7.94160331,7.865 8.06860331,7.865 L8.73760331,7.872 L10.6886033,7.896 C11.1886033,7.896 11.6526033,7.7 11.9946033,7.344 C12.1656033,7.165 12.2956033,6.959 12.3796033,6.735 C12.3876033,6.713 12.3896033,6.69 12.3976033,6.668 C12.4666033,6.461 12.5026033,6.244 12.4936033,6.017 L12.3896033,3.422 C12.3836033,3.248 12.4246033,3.172 12.4586033,3.162 C12.4856033,3.162 12.5636033,3.168 12.6876033,3.237 L14.5636033,4.25 L14.9736033,4.471 C15.0006033,4.486 15.0296033,4.496 15.0576033,4.51 C15.3026033,4.627 15.5706033,4.692 15.8386033,4.692 C16.3066033,4.692 16.7386033,4.511 17.0656033,4.203 C17.2266033,4.049 17.3636033,3.869 17.4646033,3.658 L18.5796033,1.311 C18.6016033,1.266 18.6216033,1.232 18.6416033,1.203 C18.6766033,1.152 18.7066033,1.124 18.7226033,1.113 C18.7286033,1.108 18.7356033,1.104 18.7376033,1.103 C18.7426033,1.104 18.7596033,1.112 18.7796033,1.124 C18.7896033,1.131 18.8006033,1.14 18.8136033,1.151 C18.8456033,1.179 18.8846033,1.219 18.9286033,1.285 L20.3786033,3.44 C20.4906033,3.608 20.6306033,3.75 20.7846033,3.87 C21.0946033,4.107 21.4746033,4.244 21.8736033,4.244 C21.9906033,4.244 22.1056033,4.229 22.2186033,4.206 C22.4856033,4.155 22.7386033,4.045 22.9626033,3.877 L23.8116033,3.24 L25.0396033,2.319 C25.1536033,2.232 25.2256033,2.214 25.2596033,2.21 C25.2656033,2.209 25.2736033,2.208 25.2766033,2.207 C25.2896033,2.217 25.3416033,2.286 25.3616033,2.458 L25.6426033,5.039 C25.6846033,5.42 25.8416033,5.763 26.0766033,6.034 C26.1646033,6.134 26.2646033,6.223 26.3716033,6.302 C26.7446033,6.576 27.2226033,6.709 27.7276033,6.627 L30.2926033,6.212 C30.4346033,6.189 30.5446033,6.219 30.5526033,6.224 C30.5536033,6.227 30.5556033,6.236 30.5576033,6.245 C30.5636033,6.28 30.5616033,6.357 30.5116033,6.486 L29.5616033,8.902 C29.5386033,8.959 29.5196033,9.018 29.5026033,9.078 C29.5026033,9.078 29.5026033,9.079 29.5016033,9.08 C29.4986033,9.092 29.4956033,9.106 29.4926033,9.12 C29.4056033,9.452 29.4156033,9.795 29.5206033,10.121 C29.5436033,10.191 29.5696033,10.26 29.6016033,10.329 C29.6406033,10.413 29.6916033,10.491 29.7426033,10.567 C29.9636033,10.897 30.2816033,11.147 30.6696033,11.278 L32.5076033,11.892 L33.1326033,12.102 C33.2436033,12.138 33.3016033,12.178 33.3326033,12.205 C33.3466033,12.219 33.3576033,12.23 33.3596033,12.234 C33.3596033,12.244 33.3446033,12.285 33.3006033,12.341 C33.2766033,12.371 33.2466033,12.406 33.2006033,12.445 L31.9686033,13.51 L31.2366033,14.144 C30.8546033,14.473 30.6316033,14.928 30.6076033,15.425 C30.5846033,15.922 30.7636033,16.397 31.1136033,16.762 L32.9126033,18.635 C33.0326033,18.761 33.0506033,18.845 33.0506033,18.857 C33.0496033,18.86 33.0436033,18.865 33.0386033,18.87 C33.0366033,18.871 33.0366033,18.872 33.0346033,18.875 L33.0336033,18.875 C33.0056033,18.901 32.9386033,18.942 32.8116033,18.972 L30.2836033,19.563 C29.7926033,19.677 29.3826033,19.977 29.1306033,20.408 C29.0756033,20.502 29.0296033,20.602 28.9936033,20.703 C28.9926033,20.706 28.9906033,20.709 28.9896033,20.713 C28.9526033,20.816 28.9266033,20.92 28.9096033,21.027 L28.9096033,21.029 C28.6766033,21.407 28.5706033,21.711 28.6756033,22.068 L29.3976033,24.561 L26.9216033,23.918 C26.8206033,23.892 26.7166033,23.878 26.6126033,23.87 C26.5606033,23.865 26.5096033,23.86 26.4566033,23.86 C26.3616033,23.86 26.2696033,23.87 26.1776033,23.883 C26.1576033,23.886 26.1376033,23.889 26.1186033,23.893 C26.0386033,23.908 25.9606033,23.929 25.8846033,23.955 C25.8526033,23.965 25.8216033,23.978 25.7906033,23.99 C25.7416033,24.009 25.6956033,24.032 25.6496033,24.055 C25.5886033,24.085 25.5306033,24.12 25.4746033,24.157 C25.4556033,24.169 25.4356033,24.182 25.4176033,24.196 C25.3306033,24.258 25.2486033,24.328 25.1736033,24.405 C25.1736033,24.405 25.1736033,24.406 25.1726033,24.407 C24.7816033,24.673 24.5106033,25.072 24.4146033,25.542 L23.9666033,27.729 C23.9426033,27.846 23.9596033,27.965 24.0076033,28.072 C23.9896033,28.064 23.9676033,28.051 23.9456033,28.038 C23.9406033,28.035 23.9366033,28.032 23.9316033,28.029 C23.9046033,28.011 23.8756033,27.989 23.8426033,27.958 L21.9196033,26.212 C21.7776033,26.083 21.6156033,25.984 21.4456033,25.907 C21.2126033,25.801 20.9626033,25.739 20.7036033,25.739 C20.3926033,25.739 20.0926033,25.823 19.8266033,25.972 C19.7356033,26.023 19.6496033,26.08 19.5676033,26.148 C19.4736033,26.225 19.3846033,26.311 19.3056033,26.408 L17.6616033,28.418 C17.6396033,28.446 17.6186033,28.467 17.5986033,28.487 C17.5746033,28.51 17.5526033,28.529 17.5326033,28.542 C17.5316033,28.544 17.5296033,28.546 17.5276033,28.547 C17.5246033,28.549 17.5246033,28.549 17.5216033,28.55 C17.4896033,28.572 17.4676033,28.58 17.4576033,28.581 C17.4536033,28.58 17.4466033,28.575 17.4376033,28.567 C17.4376033,28.567 17.4366033,28.566 17.4356033,28.565 C17.4066033,28.538 17.3606033,28.477 17.3166033,28.359 L16.7176033,26.718 C16.8686033,26.564 16.9226033,26.336 16.8466033,26.131 L16.8046033,26.019 C16.6316033,25.541 16.2826033,25.169 15.8226033,24.97 C15.6676033,24.903 15.5046033,24.859 15.3406033,24.837 C15.2476033,24.804 15.1516033,24.779 15.0526033,24.76 C15.0506033,24.76 15.0476033,24.759 15.0446033,24.758 C14.9446033,24.741 14.8416033,24.731 14.7366033,24.731 C14.6136033,24.731 14.4926033,24.743 14.3736033,24.767 C14.3726033,24.767 14.3716033,24.768 14.3716033,24.768 C14.2516033,24.792 14.1356033,24.83 14.0216033,24.877 L14.0206033,24.878 L11.7266033,25.853 C11.7276033,25.831 11.7276033,25.811 11.7316033,25.786 L12.0776033,23.211 L12.0776033,23.21 C12.1436033,22.706 12.0076033,22.213 11.6926033,21.824 C11.4006033,21.462 10.9866033,21.239 10.5236033,21.175 L10.5226033,21.175 C10.4606033,21.153 10.3976033,21.133 10.3316033,21.118 C10.2406033,21.094 10.1486033,21.075 10.0516033,21.067 L9.17660331,20.996 L7.46360331,20.856 Z M30.2256033,25.599 C30.2616033,25.562 30.2936033,25.522 30.3236033,25.481 C30.4186033,25.415 30.5076033,25.34 30.5786033,25.246 C30.8186033,24.924 30.8756033,24.486 30.7386033,24.012 L30.5066033,23.207 L36.6916033,30.067 L32.4006033,30.464 C32.1356033,30.489 31.9236033,30.696 31.8926033,30.96 L31.4566033,34.692 L25.2986033,27.866 L25.7776033,25.527 C25.7946033,25.442 25.8286033,25.365 25.8726033,25.295 C26.0236033,25.215 26.1976033,25.193 26.3706033,25.238 L28.8846033,25.89 C29.4216033,26.03 29.9106033,25.923 30.2256033,25.599 Z M0.0296033068,30.065 C0.101603307,30.278 0.293603307,30.427 0.517603307,30.446 L5.48860331,30.849 L5.64360331,35.463 C5.65060331,35.682 5.78360331,35.877 5.98660331,35.962 C6.05660331,35.993 6.13160331,36.007 6.20560331,36.007 C6.34260331,36.007 6.47760331,35.957 6.58360331,35.863 L15.8356033,27.52 L16.2806033,28.738 C16.4966033,29.331 16.9356033,29.685 17.4556033,29.685 C17.8406033,29.685 18.2176033,29.483 18.5156033,29.116 L20.1596033,27.105 C20.2966033,26.938 20.4946033,26.841 20.7036033,26.841 C20.8256033,26.841 21.0086033,26.873 21.1776033,27.029 L23.1016033,28.775 C23.4016033,29.048 23.7376033,29.193 24.0696033,29.193 C24.2966033,29.193 24.5456033,29.121 24.7596033,28.951 L31.4526033,36.371 C31.5616033,36.491 31.7146033,36.556 31.8706033,36.556 C31.9276033,36.556 31.9866033,36.547 32.0426033,36.53 C32.2526033,36.462 32.4046033,36.278 32.4306033,36.058 L32.9586033,31.544 L37.9146033,31.085 C38.1266033,31.066 38.3096033,30.928 38.3876033,30.729 C38.4646033,30.531 38.4236033,30.305 38.2806033,30.147 L30.0546033,21.025 C30.0646033,21.004 30.0716033,20.984 30.0826033,20.964 C30.1786033,20.798 30.3396033,20.682 30.5346033,20.636 L33.0626033,20.046 C33.5996033,19.92 33.9806033,19.603 34.1066033,19.173 C34.2346033,18.743 34.0896033,18.269 33.7086033,17.871 L31.9096033,15.998 C31.7726033,15.855 31.7006033,15.669 31.7096033,15.478 C31.7186033,15.286 31.8056033,15.109 31.9576033,14.979 L33.9226033,13.28 C34.3386033,12.919 34.5276033,12.461 34.4406033,12.022 C34.3536033,11.581 34.0046033,11.23 33.4826033,11.055 L31.0206033,10.231 C30.8306033,10.168 30.6816033,10.038 30.5996033,9.863 C30.5196033,9.689 30.5146033,9.491 30.5896033,9.305 L31.5376033,6.89 C31.7276033,6.409 31.7016033,5.953 31.4656033,5.605 C31.1956033,5.21 30.7266033,5.025 30.1156033,5.124 L27.5516033,5.538 C27.1406033,5.605 26.7836033,5.325 26.7386033,4.919 L26.4566033,2.338 C26.3656033,1.488 25.7966033,1.106 25.2726033,1.106 C24.9756033,1.106 24.6656033,1.22 24.3776033,1.437 L22.3006033,2.996 C21.9796033,3.237 21.5156033,3.157 21.2926033,2.825 L19.8436033,0.669 C19.5526033,0.238 19.1606033,0 18.7376033,0 C18.2566033,0 17.8346033,0.307 17.5836033,0.838 L16.4676033,3.184 C16.2976033,3.543 15.8536033,3.694 15.4966033,3.501 L13.2136033,2.266 C12.6296033,1.951 12.0156033,2.01 11.6426033,2.398 C11.4696033,2.579 11.2666033,2.911 11.2886033,3.466 L11.3916033,6.061 C11.3996033,6.258 11.3316033,6.442 11.1986033,6.58 C11.0666033,6.717 10.8846033,6.792 10.6796033,6.792 L8.05560331,6.761 C7.51560331,6.761 7.07860331,6.981 6.85860331,7.365 C6.63460331,7.75 6.66360331,8.244 6.93660331,8.717 L8.23460331,10.967 C8.33260331,11.139 8.35760331,11.335 8.30360331,11.52 C8.24960331,11.705 8.12160331,11.856 7.94360331,11.947 L5.63060331,13.125 C5.13860331,13.375 4.84560331,13.776 4.82460331,14.223 C4.80460331,14.67 5.05960331,15.096 5.52360331,15.39 L7.71860331,16.78 C7.88560331,16.886 7.99960331,17.048 8.03660331,17.237 C8.07360331,17.426 8.03160331,17.619 7.91560331,17.782 L6.41360331,19.901 C6.09560331,20.35 6.02260331,20.841 6.21260331,21.247 C6.40260331,21.653 6.82460331,21.912 7.37460331,21.955 L8.41960331,22.04 L0.186603307,29.466 C0.0196033068,29.617 -0.0423966932,29.852 0.0296033068,30.065 L0.0296033068,30.065 Z" id="Fill-715"></path>
            </g>
        </g>
    </g>
</svg>