<?xml version="1.0" encoding="UTF-8"?>
<svg width="36px" height="38px" viewBox="0 0 36 38" version="1.1" xmlns="http://www.w3.org/2000/svg" xmlns:xlink="http://www.w3.org/1999/xlink">
    <title>Civil</title>
    <g id="Page-1" stroke="none" stroke-width="1" fill="none" fill-rule="evenodd">
        <g id="7992" transform="translate(-997.000000, -864.000000)" fill="#FCBA30">
            <g id="Civil" transform="translate(997.293848, 864.780000)">
                <path d="M1.39615206,30.004 L1.39615206,25.83 C3.21615206,25.627 4.51615206,24.656 5.79615206,23.712 C6.07615206,23.5 6.36615206,23.285 6.66615206,23.078 C7.79615206,22.285 9.11615206,21.552 11.0061521,21.552 C11.9561521,21.552 12.7161521,21.561 13.3461521,21.579 L18.1961521,21.579 C18.5161521,21.579 18.7861521,21.842 18.7861521,22.165 C18.7861521,22.488 18.5161521,22.75 18.1961521,22.75 L13.6661521,22.75 C13.6261521,22.75 13.5861521,22.753 13.5561521,22.759 C12.2761521,22.968 11.3561521,24.054 11.3561521,25.341 C11.3561521,26.288 11.8761521,27.163 12.7161521,27.624 C12.7661521,27.652 12.8161521,27.672 12.8661521,27.687 C13.0161521,27.726 13.7061521,27.91 14.6361521,28.156 C15.1861521,28.289 15.7461521,28.438 16.3161521,28.6 L16.4361521,28.634 C19.1761521,29.356 20.6561521,29.744 20.9861521,29.821 C21.0261521,29.83 21.0661521,29.836 21.1061521,29.838 C21.4561521,29.858 21.7461521,29.834 22.0061521,29.77 C22.0861521,29.751 22.1561521,29.721 22.2161521,29.679 L29.3561521,25.051 C29.3661521,25.044 29.3761521,25.037 29.3861521,25.031 L30.6461521,24.122 C30.6461521,24.118 30.6561521,24.115 30.6661521,24.111 C30.6961521,24.086 30.7361521,24.067 30.7761521,24.046 C30.8561521,24.007 30.9161521,23.982 30.9661521,23.966 C31.0161521,23.95 31.0661521,23.941 31.1261521,23.933 C31.2561521,23.912 31.3961521,23.913 31.5361521,23.941 C31.5561521,23.947 31.5861521,23.95 31.6161521,23.952 C32.3261521,24.014 32.8661521,24.596 32.8661521,25.306 C32.8661521,25.665 32.7161521,26.006 32.4561521,26.264 C32.4561521,26.269 32.4461521,26.273 32.4461521,26.278 C32.3361521,26.377 32.2261521,26.458 32.1161521,26.517 C32.0861521,26.533 32.0461521,26.552 32.0161521,26.574 L31.5261521,26.932 L20.4161521,34.987 C20.3961521,34.993 20.3861521,35 20.3661521,35.007 C20.0461521,35.116 19.7761521,35.133 19.4761521,35.077 L19.4461521,35.069 C12.0861521,33.195 6.80615206,31.863 4.18615206,31.215 L3.95615206,31.131 C3.93615206,31.122 3.90615206,31.116 3.88615206,31.109 C2.87615206,30.855 2.03715206,30.691 1.38815206,30.617 L1.39615206,30.004 Z M0.704152063,31.96 C1.26415206,31.96 2.25915206,32.133 3.50615206,32.445 L3.74615206,32.531 C3.76615206,32.538 3.78615206,32.546 3.81615206,32.552 C6.42615206,33.196 11.7061521,34.531 19.0961521,36.411 L19.1561521,36.425 C19.1661521,36.429 19.1861521,36.432 19.1961521,36.435 C19.3961521,36.475 19.6061521,36.495 19.8061521,36.495 C20.1461521,36.495 20.4761521,36.436 20.8361521,36.313 C20.8461521,36.309 20.8561521,36.305 20.8661521,36.301 L20.9461521,36.268 C21.0261521,36.246 21.0861521,36.212 21.1561521,36.167 L32.7961521,27.725 C33.0161521,27.606 33.2261521,27.453 33.4161521,27.271 C33.4261521,27.261 33.4361521,27.251 33.4361521,27.241 C33.9661521,26.722 34.2461521,26.034 34.2461521,25.306 C34.2461521,23.884 33.1861521,22.717 31.7761521,22.574 C31.4961521,22.524 31.2361521,22.514 30.9161521,22.562 C30.7861521,22.58 30.6761521,22.606 30.5661521,22.639 C30.4361521,22.679 30.2961521,22.736 30.1561521,22.81 C30.0861521,22.844 30.0061521,22.883 29.9361521,22.928 C29.9161521,22.941 29.8961521,22.955 29.8661521,22.972 L28.5861521,23.897 L21.5761521,28.444 C21.4861521,28.456 21.3661521,28.46 21.2361521,28.456 C20.8261521,28.355 19.3261521,27.964 16.7961521,27.293 L16.6861521,27.264 C16.1161521,27.1 15.5361521,26.946 14.9761521,26.811 C14.1861521,26.604 13.5661521,26.439 13.3161521,26.372 C12.9661521,26.147 12.7461521,25.758 12.7461521,25.341 C12.7461521,24.752 13.1561521,24.254 13.7261521,24.136 L18.1961521,24.136 C19.2861521,24.136 20.1661521,23.252 20.1661521,22.165 C20.1661521,21.077 19.2861521,20.193 18.1961521,20.193 L13.3661521,20.193 C12.7461521,20.175 11.9661521,20.165 11.0061521,20.165 C8.72615206,20.165 7.12615206,21.063 5.86615206,21.941 C5.56615206,22.157 5.26615206,22.378 4.96615206,22.599 C3.60615206,23.61 2.42615206,24.483 0.693152063,24.483 C0.470152063,24.483 0.260152063,24.591 0.129152063,24.773 C0.0211520625,24.924 -0.0208479375,25.111 0.0101520625,25.292 L-9.23705556e-14,30.721 C-0.000847937482,30.764 0.00315206252,30.806 0.0101520625,30.847 L0.0101520625,31.268 C0.0101520625,31.651 0.320152063,31.96 0.704152063,31.96 L0.704152063,31.96 Z"></path>
                <path d="M10.3261521,10.728 L9.95615206,10.364 C9.62615206,10.026 9.62615206,9.476 9.95615206,9.138 L16.5961521,2.497 C16.6161521,2.481 16.6361521,2.464 16.6461521,2.448 L17.4561521,1.64 C17.7761521,1.313 18.3561521,1.313 18.6861521,1.64 L19.4861521,2.443 C19.5061521,2.462 19.5161521,2.48 19.5361521,2.497 L26.1761521,9.138 C26.5161521,9.476 26.5161521,10.026 26.1761521,10.364 L25.8161521,10.728 L18.5561521,3.474 C18.4261521,3.344 18.2561521,3.271 18.0661521,3.271 C17.8861521,3.271 17.7061521,3.344 17.5761521,3.474 L10.3261521,10.728 Z M23.6161521,16.593 C23.6161521,17.017 23.2661521,17.362 22.8461521,17.362 L21.0561521,17.362 C21.1061521,17.265 21.1361521,17.155 21.1361521,17.037 L21.1361521,11.318 C21.1361521,10.935 20.8261521,10.625 20.4461521,10.625 L15.6861521,10.625 C15.3061521,10.625 14.9961521,10.935 14.9961521,11.318 L14.9961521,17.037 C14.9961521,17.155 15.0261521,17.265 15.0761521,17.362 L13.2961521,17.362 C12.8661521,17.362 12.5261521,17.017 12.5261521,16.593 L12.5261521,10.49 L18.0661521,4.945 L21.6061521,8.486 L23.6161521,10.49 L23.6161521,16.593 Z M16.3861521,16.343 L19.7561521,16.343 L19.7561521,12.011 L16.3861521,12.011 L16.3861521,16.343 Z M13.2961521,18.748 L22.8461521,18.748 C24.0361521,18.748 24.9961521,17.782 24.9961521,16.593 L24.9961521,11.876 L25.3261521,12.199 C25.5961521,12.47 26.0261521,12.469 26.3061521,12.199 L27.1561521,11.344 C28.0361521,10.466 28.0361521,9.036 27.1561521,8.158 L20.5661521,1.569 C20.5561521,1.549 20.5361521,1.532 20.5161521,1.514 L19.6661521,0.659 C19.2361521,0.234 18.6661521,1.42108547e-14 18.0661521,1.42108547e-14 C17.4661521,1.42108547e-14 16.8961521,0.234 16.4761521,0.659 L15.6161521,1.514 C15.6061521,1.53 15.5861521,1.547 15.5761521,1.564 L8.97615206,8.158 C8.09615206,9.036 8.09615206,10.466 8.97615206,11.344 L9.83615206,12.199 C9.96615206,12.334 10.1461521,12.402 10.3261521,12.402 C10.4961521,12.402 10.6761521,12.334 10.8161521,12.199 L11.1361521,11.876 L11.1361521,16.593 C11.1361521,17.782 12.1061521,18.748 13.2961521,18.748 L13.2961521,18.748 Z" id="Fill-455"></path>
            </g>
        </g>
    </g>
</svg>