<?xml version="1.0" encoding="UTF-8"?>
<svg xmlns="http://www.w3.org/2000/svg" viewBox="0 0 512 512" width="512" height="512">
  <!-- Dark background -->
  <rect width="512" height="512" rx="80" fill="#0d0510"/>

  <!-- Logomark extracted and scaled to fit 512x512 canvas -->
  <!-- Original mark center: cx=235.83 cy=245.62 r=135.77 in viewBox 0 0 446.61 612 -->
  <!-- We crop to the mark region: approx x=88 y=97 w=300 h=300, then scale/center to 512x512 with padding -->
  <g transform="translate(256,256) scale(1.55) translate(-235.83,-245.62)">
    <defs>
      <style>
        .fc-1 { stroke: #000; stroke-width: .29px; }
        .fc-1, .fc-2, .fc-3 { stroke-miterlimit: 10; }
        .fc-2, .fc-3 { stroke: #9517b3; stroke-width: 5.85px; }
        .fc-4, .fc-2, .fc-5, .fc-6 { fill: #fff; }
        .fc-3 { fill: none; }
        .fc-7 { fill: #bfbfbf; }
        .fc-8 { fill: #ffe907; }
      </style>
    </defs>

    <!-- Purple ring circle -->
    <circle class="fc-2" cx="235.83" cy="245.62" r="135.77"/>

    <!-- Main logomark body paths (grey/white art) -->
    <g>
      <path class="fc-7" d="M216.99,79.86c-8.48,1.82-2.65-2.97-2.65-2.97,12.43-9.86,23.05,12.48,2.56,19.48-20.5,7-22.56-12.38-22.56-12.38,0,0-1.68-14.96,15.54-19.54,17.22-4.59,35.87,27.49,10.41,62.22-25.46,34.73-25.52,42.96-25.52,42.96-8.4,50.68,28.9,58.78,47.68,57.73,18.79-1.05,18.43,1.61,26.16,7.04,7.73,5.43,17.42,6.63,17.42,6.63,43.45,8.73,35.83,48.3,35.83,48.3,0,0,17.67,30.62,27.72,30.52,0,0-45.43,60.36-130.34,57.92,1.29-34.82-11.08-44.25-11.08-44.25-2.76-.54-9.01-7.93-11.34-25.93s-6.98-20.31-10.79-24.04c-3.81-3.74-7.59-4.96-7.91-8.61s3.09-4.53,3.09-4.53c0,0-13.97-7.12-13.53-17.61.45-10.49-7.97-18.29-7.97-18.29-6.67-23.44-1.19-63.01,29.54-98,30.72-34.99,22.32-38.83,22.32-38.83"/>
      <g>
        <path d="M177.42,200.59c-6.85,1.32-15.88,2.83-20.59,8.52-1.19,1.44.87,3.52,2.07,2.07,4.33-5.22,12.99-6.55,19.3-7.76,1.85-.36,1.07-3.18-.78-2.82h0Z"/>
        <g>
          <path d="M177.53,190.52c-7.01.32-13.53,2.55-19.2,6.69-1.51,1.1-.05,3.64,1.48,2.53,5.27-3.84,11.2-5.99,17.73-6.29,1.88-.09,1.89-3.01,0-2.93h0Z"/>
          <path d="M179.07,181.49c-6.87.12-13.3,2.21-18.88,6.24-1.51,1.09-.05,3.63,1.48,2.53,5.18-3.74,11-5.72,17.4-5.84,1.88-.03,1.89-2.96,0-2.93h0Z"/>
          <path d="M180.6,172.19c-6.48.08-12.49,2.17-17.63,6.13-1.47,1.13-.02,3.68,1.48,2.53,4.75-3.66,10.14-5.65,16.15-5.73,1.88-.02,1.89-2.95,0-2.93h0Z"/>
          <path d="M183.27,163.16c-6.29.04-11.94,2.28-16.77,6.26-1.45,1.2.63,3.26,2.07,2.07,4.23-3.48,9.21-5.37,14.7-5.4,1.88-.01,1.89-2.94,0-2.93h0Z"/>
          <path d="M185.72,154.87c-5.72-.02-10.78,2.25-14.95,6.1-1.39,1.28.69,3.35,2.07,2.07,3.61-3.34,7.92-5.26,12.88-5.24,1.88,0,1.89-2.92,0-2.93h0Z"/>
          <path d="M189.48,147.09c-5.1-.7-9.57,1.13-13.35,4.52-1.41,1.26.67,3.33,2.07,2.07,2.91-2.61,6.52-4.32,10.5-3.77,1.84.25,2.64-2.57.78-2.82h0Z"/>
          <path d="M192.18,140.06c-4.23-1.02-7.98,1.01-10.88,3.98-1.32,1.35.75,3.42,2.07,2.07,2.14-2.19,4.85-4,8.03-3.23,1.83.44,2.61-2.38.78-2.82h0Z"/>
          <path d="M197.52,134.76c-3.35-1.97-7.06-.49-9.94,1.64-1.5,1.11-.04,3.65,1.48,2.53,1.96-1.45,4.59-3.04,6.98-1.64,1.63.96,3.1-1.57,1.48-2.53h0Z"/>
        </g>
      </g>

      <!-- Face/figure detail paths (white fill) -->
      <g>
        <path class="fc-5" d="M199.59,238.41s-39.43-17.63-51.77-33.21c0,0-1.56-2-3.2-1.16-1.64.84-.95,2.59-.29,4.08.66,1.48,27.24,42.15,60.8,45,0,0,8.87-3.98-5.54-14.7Z"/>
        <path d="M200.55,236.76c-10.06-4.51-19.89-9.7-29.29-15.44-6.89-4.21-13.86-8.76-19.52-14.58-1.57-1.61-3.03-4.24-5.42-4.72-2.77-.56-4.79,1.7-4.54,4.31.27,2.9,2.83,5.76,4.46,7.98,3.37,4.59,7.02,8.99,10.91,13.14,10.61,11.32,23.64,21.74,38.84,25.93,4.16,1.15,10.01,3.43,12.81-1.09,3.78-6.12-4.14-12.37-8.24-15.53-1.94-1.5-3.85,1.81-1.93,3.3,1.64,1.26,11.21,8.91,5.83,11.25-1.05.46-5.4-1.07-6.84-1.45-3.48-.91-6.85-2.19-10.09-3.76-11.5-5.57-21.34-14.22-29.81-23.68-1.07-1.2-13.19-14.81-11.75-16.07-.23.2,10.3,9.39,11.5,10.29,5.15,3.87,10.62,7.31,16.19,10.54,8.09,4.69,16.44,9.05,24.98,12.88,2.22,1,4.17-2.29,1.93-3.3Z"/>
      </g>

      <!-- Lower body / tail detail -->
      <path class="fc-7" d="M254.21,361.68c5.27,7.24,1.89,31.93-3.52,44.88-5.41,12.96-1.63,21.49-1.63,21.49,0,0,2.77,8.47,4.22,1.81,1.46-6.66,5.51-5.12,5.51-5.12,7.2.97,6.18-5.76,6.18-5.76,0,0-.79-4.14,3.49-3.35s7.93-7.37,7.14-13.11c-.79-5.74,4.58-2.43,4.58-2.43,12.63,5.01,26.09-17.36,27.61-19.96s4.9-5.51,5.7-2.96,10.56-.48,13.57-4.22c3.02-3.75,6.57,2.05,12.53-1.08,5.97-3.13,5.72-31.28-3.27-37.84-8.99-6.56-11.64-30.04-15.65-40.54-4.01-10.5-9.97-3.3-9.97-3.3"/>

      <!-- Arm/wing paths -->
      <g>
        <path d="M172.4,238.43s-39.43-17.63-51.77-33.21c0,0-1.56-2-3.2-1.16-1.64.84-.95,2.59-.29,4.08s27.24,42.15,60.8,45c0,0,8.87-3.98-5.54-14.7Z"/>
        <path d="M173.36,236.79c-10.06-4.51-19.89-9.7-29.29-15.44-6.89-4.21-13.86-8.76-19.52-14.58-1.57-1.61-3.03-4.24-5.42-4.72-2.77-.56-4.79,1.7-4.54,4.31.27,2.9,2.83,5.76,4.46,7.98,3.37,4.59,7.02,8.99,10.91,13.14,10.61,11.32,23.64,21.74,38.84,25.93,4.16,1.15,10.01,3.43,12.81-1.09,3.78-6.12-4.14-12.37-8.24-15.53-1.94-1.5-3.85,1.81-1.93,3.3,1.64,1.26,11.21,8.91,5.83,11.25-1.05.46-5.4-1.07-6.84-1.45-3.48-.91-6.85-2.19-10.09-3.76-11.5-5.57-21.34-14.22-29.81-23.68-1.07-1.2-13.19-14.81-11.75-16.07-.23.2,10.3,9.39,11.5,10.29,5.15,3.87,10.62,7.31,16.19,10.54,8.09,4.69,16.44,9.05,24.98,12.88,2.22,1,4.17-2.29,1.93-3.3Z"/>
      </g>
    </g>

    <!-- Yellow-gold compass/angle tool overlay -->
    <path class="fc-8" d="M329.92,224.43c-14.38-12.92-36.51-11.73-49.43,2.65l-3.34,3.72-9.67-4.2-2.23,2.48,59.52,53.45,4.45-4.96,3.34-3.72c12.92-14.38,11.73-36.51-2.65-49.43ZM285.83,238.6l5.69-3.85,2.48,2.23-3.22,6.07-4.96-4.45ZM295.75,247.51l5.69-3.85,2.48,2.23-3.21,6.07-4.96-4.45ZM305.67,256.42l5.69-3.85,2.48,2.23-3.21,6.07-4.96-4.45ZM321.01,234.35c-4.45-4-10.1-5.81-15.64-5.51l-.36-6.66c7.24-.39,14.63,1.98,20.45,7.21,5.82,5.23,8.97,12.32,9.36,19.56l-6.66.36c-.3-5.54-2.71-10.96-7.16-14.96ZM315.59,265.33l5.69-3.85,2.48,2.23-3.22,6.07-4.96-4.45Z"/>

    <!-- Arc line connecting bottom area -->
    <path class="fc-3" d="M350.79,317.89s-45.93,70.55-134.11,62.16"/>

    <!-- Parallelogram accent shape -->
    <polygon class="fc-1" points="242.32 374.87 242.32 380.04 259.02 379.22 259.96 372.99 242.32 374.87"/>

    <!-- Eye / small detail -->
    <circle class="fc-5" cx="254.03" cy="244.25" r=".93"/>
  </g>
</svg>
