<?xml version="1.0" encoding="utf-8"?>
<!-- Generator: Adobe Illustrator 28.0.0, SVG Export Plug-In . SVG Version: 6.00 Build 0)  -->
<svg version="1.0" id="layer" xmlns="http://www.w3.org/2000/svg" xmlns:xlink="http://www.w3.org/1999/xlink" x="0px" y="0px"
	 viewBox="0 0 652 194" style="enable-background:new 0 0 652 194;" xml:space="preserve">
<style type="text/css">
	.st0{fill:#AFAFB0;}
	.st1{fill:#005098;}
	.st2{fill:#231815;}
</style>
<g>
	<path class="st0" d="M131.4,35.8C119.5,28.9,105.6,25,90.9,25C54,25,20.3,54.1,20.3,99s36.4,81.3,81.3,81.3h81.3
		c-44.9,0-81.3-36.4-81.3-81.3c0-30,16.2-52.7,29.8-63V35.8"/>
	<path class="st1" d="M146.6,165.8c11.9,6.9,25.7,10.8,40.5,10.8c36.9,0,70.6-29.1,70.6-74s-36.4-81.3-81.3-81.3H95
		c44.9,0,81.3,36.4,81.3,81.3c0,30-16.2,52.7-29.8,63L146.6,165.8"/>
	<path class="st2" d="M357.9,25.8l-9.3,43.7c-4.3,19.2-21.3,26.8-38.7,26.8c-17.4,0-31.2-7.5-27.3-26.8l9.3-43.7H311l-9.1,42.7
		c-1.6,8.8,1.8,14.3,10.8,14.3s14.7-5.6,16.9-14.3l9.1-42.7H357.9"/>
	<path class="st2" d="M378,52.1c5.1-4.8,10.3-6.7,16.4-6.7c10.3,0,16.6,6.7,14.3,17.3l-6.8,32.1h-18.2l6-28.2
		c0.8-4.7,0.7-9.7-4.9-9.7c-9,0-9.9,9.8-10.1,10.4l-5.8,27.5h-18.2l7.6-35.7c0.9-4.3,1.4-7.2,2.1-12.3h18.4L378,52.1"/>
	<path class="st2" d="M421.6,38.6l2.7-12.8h18.4L440,38.6H421.6z M409.7,94.8l10.2-48h18.2l-10.2,48H409.7z"/>
	<path class="st2" d="M451.1,46.9l1.5-7.3l19.6-6.9l-3,14.2h10.5l-2.4,11.5h-10.5l-4.1,19c-0.3,1.3-2.4,7.5,1.9,7.5
		c2.4,0,4.9,0,7-0.3l-2.3,10.8c-4.3,0.8-7.3,1-10,1c-12.3,0-19.4-1.7-15.3-16.4l4.6-21.5h-9.4l2.4-11.5h9.5"/>
	<path class="st2" d="M511.6,64.7c0.6-2.6,0.3-5.2-0.7-7.2s-2.9-3.2-5.7-3.1c-6.4,0.3-8.9,4.8-10.5,10.2h16.9 M492.3,74.5
		c-1.4,6.2-0.9,11.6,5.8,11.6c5.1,0,8.7-2.4,10.4-6.9h16.8c-1.9,6.2-6.8,10.7-11.9,13.4c-4.8,2.7-10.4,3.7-16,3.7
		c-19.2,0-25.1-8.2-21.1-27.1c3.2-15.2,16.4-23.8,30.9-23.8c19.5,0,23.3,11.2,19.6,29.1L492.3,74.5L492.3,74.5z"/>
	<path class="st2" d="M550.1,70.9c-1.4,6.3-1.7,14.9,5.7,14.9s10.7-8.6,12.1-14.9c1.3-6.4,2.2-14.9-5.7-14.9S551.4,64.4,550.1,70.9
		 M564.3,87.8h-0.4c-3.7,5.8-11,8.5-17.8,8.5c-13.7,0-17.3-13.3-14.7-25.2c2.7-12.7,11.8-25.6,26.1-25.6c6,0,11.6,2.1,14.1,7.1h0.2
		l5.7-26.7h18.2l-14.7,69h-17.7L564.3,87.8z"/>
	<path class="st2" d="M311.6,137c6.1,0,12.2-0.9,13.7-7.9c1.5-7.1-4.2-7.9-10.4-7.9h-7.5l-3.4,15.9h7.6 M295.7,176.8h-19.1l14.7-69
		h31.9c11.7,0,26.1,3.2,23,17.8c-2.2,10.3-11.3,15.8-21.2,16.9l-0.1,0.4c12.2,0.3,13.1,6.5,12.1,17.2c-0.7,5.7-0.8,11.2-0.4,16.7
		h-20.7c0-4.8,0.4-9.8,1-14.6c1-8.3,1.3-11.7-8.4-11.7h-7.2L295.7,176.8z"/>
	<path class="st2" d="M378.3,146.7c0.6-2.6,0.3-5.2-0.7-7.2s-2.8-3.3-5.7-3.1c-6.4,0.3-8.9,4.8-10.5,10.2h16.9 M359,156.4
		c-1.4,6.2-0.9,11.6,5.9,11.6c5.1,0,8.7-2.4,10.3-6.9H392c-1.9,6.2-6.8,10.7-11.9,13.4c-4.8,2.7-10.4,3.7-16,3.7
		c-19.2,0-25.1-8.2-21.1-27c3.2-15.2,16.4-23.8,30.9-23.8c19.5,0,23.3,11.2,19.5,29.1H359V156.4z"/>
	<path class="st2" d="M421.2,134.1c5.1-4.8,10.3-6.7,16.4-6.7c10.3,0,16.6,6.7,14.3,17.3l-6.8,32.1h-18.2l6-28.2
		c0.8-4.7,0.7-9.8-4.9-9.8c-9,0-9.9,9.8-10,10.4l-5.8,27.5H394l7.6-35.7c0.9-4.3,1.4-7.2,2-12.3H422L421.2,134.1"/>
	<path class="st2" d="M467.2,128.8l1.5-7.3l19.6-6.9l-3,14.1h10.5l-2.4,11.5h-10.5l-4.1,19c-0.3,1.2-2.3,7.5,1.9,7.5
		c2.4,0,4.9,0,7-0.3l-2.3,10.8c-4.3,0.8-7.3,1-10,1c-12.3,0-19.4-1.7-15.3-16.4l4.6-21.5h-9.4l2.4-11.5L467.2,128.8"/>
	<path class="st2" d="M513,167.7c7.8,0,10.1-7.4,11.4-13.8c-3.8,0-7.4-0.2-10.2,1.1c-3,1.3-5.4,3.1-6.1,6.4
		C507.4,164.8,509.6,167.7,513,167.7 M520.3,176.8c-0.1-1.5,0.3-3.1,1-6.5h-0.2c-2.9,3.4-8,7.9-17,7.9c-11.4,0-16-6.1-13.7-16
		c2.7-11.7,14.4-16.4,30.1-16.4h5.7c0.9-4.2,3.2-10.3-4.2-10c-4.4,0.2-6.8,4.5-7.3,7.4h-17.1c1.3-6.8,5.7-10.7,11.1-12.9
		c5.5-2.3,11.8-2.9,17.1-2.9c9.8,0,20.6,4.1,18.2,14.9l-5.2,24.7c-0.4,2-0.5,4.1-1,9.8H520.3z"/>
	<polygon class="st2" points="544.2,176.8 558.9,107.8 577.1,107.8 562.4,176.8 	"/>
	<path class="st2" d="M602.8,143.6c0.3-1.6,0.4-3.1-0.3-4c-0.7-1.1-2.1-1.7-4.6-1.7c-2.7,0-4.6,1.5-5.2,4.3
		c-0.7,3.5,6.7,3.3,17.3,6.9c5.4,1.8,8.5,5.4,6.8,13.2c-2.7,12.7-15.3,16-26.3,16c-11.8,0-22.7-2.4-19.5-17h17.2
		c-0.6,1.4-0.5,3.1,0.3,4.3c0.8,1.2,2.1,2.2,3.8,2.2c3.5,0,6.4-1.3,7-4.4c1.8-8.5-27.7-3.4-24-20.9c2.5-11.9,15.8-15.1,25.4-15.1
		c11.4,0,21.3,3,19.2,16.3L602.8,143.6"/>
	<path class="st2" d="M606.9,32.5c1.2,0,2.8,0.2,2.8-1.4c0-1.1-1-1.3-1.9-1.3h-2.3v2.7H606.9 M605.5,37.1h-1v-8.2h3.5
		c2.1,0,2.9,0.8,2.9,2.3c0,1.6-1.1,2.2-2.5,2.3l2.4,3.6h-1.2l-2.3-3.6h-1.8L605.5,37.1L605.5,37.1z M613.2,33c0-3.5-2.5-6-6-6
		s-6,2.5-6,6s2.5,6.1,6,6.1C610.6,39.1,613.2,36.6,613.2,33 M599.9,33c0-3.9,3.2-7.2,7.2-7.2c3.9,0,7.1,3.2,7.1,7.2
		s-3.2,7.2-7.1,7.2C603.2,40.2,599.9,37,599.9,33"/>
</g>
</svg>
