<?xml version="1.0" encoding="UTF-8"?>
<svg id="Layer_1" data-name="Layer 1" xmlns="http://www.w3.org/2000/svg" viewBox="0 0 1327.3 612">
  <defs>
    <style>
      .cls-1 {
        stroke-width: .29px;
      }

      .cls-1, .cls-2, .cls-3 {
        stroke: #000;
        stroke-miterlimit: 10;
      }

      .cls-2 {
        stroke-width: .28px;
      }

      .cls-4 {
        font-family: Vogue-Regular, Vogue;
        font-size: 96.28px;
      }

      .cls-5 {
        fill: #fff;
      }

      .cls-6 {
        letter-spacing: 0em;
      }

      .cls-7 {
        letter-spacing: 0em;
      }

      .cls-8 {
        font-family: Montserrat-Regular, Montserrat;
        font-size: 20.66px;
      }

      .cls-9 {
        fill: #bfbfbf;
      }

      .cls-3 {
        fill: none;
        stroke-width: 5.85px;
      }

      .cls-10 {
        letter-spacing: -.02em;
      }

      .cls-11 {
        letter-spacing: -.02em;
      }

      .cls-12 {
        letter-spacing: 0em;
      }

      .cls-13 {
        font-family: BradleyHandITCTT-Bold, 'Bradley Hand';
        font-size: 78.26px;
        font-weight: 700;
      }

      .cls-14 {
        letter-spacing: 0em;
      }

      .cls-15 {
        letter-spacing: 0em;
      }
    </style>
  </defs>
  <g>
    <circle class="cls-3" cx="260.99" cy="289.62" r="135.77"/>
    <g>
      <g>
        <path class="cls-5" d="M242.15,123.85c-8.48,1.82-2.65-2.97-2.65-2.97,12.43-9.86,23.05,12.48,2.56,19.48-20.5,7-22.56-12.38-22.56-12.38,0,0-1.68-14.96,15.54-19.54,17.22-4.59,35.87,27.49,10.41,62.22-25.46,34.73-25.52,42.96-25.52,42.96-8.4,50.68,28.9,58.78,47.68,57.73,18.79-1.05,18.43,1.61,26.16,7.04,7.73,5.43,17.42,6.63,17.42,6.63,43.45,8.73,35.83,48.3,35.83,48.3,0,0,17.67,30.62,27.72,30.52,0,0-45.43,60.36-130.34,57.92,1.29-34.82-11.08-44.25-11.08-44.25-2.76-.54-9.01-7.93-11.34-25.93-2.33-18-6.98-20.31-10.79-24.04-3.81-3.74-7.59-4.96-7.91-8.61s3.09-4.53,3.09-4.53c0,0-13.97-7.12-13.53-17.61.45-10.49-7.97-18.29-7.97-18.29-6.67-23.44-1.19-63.01,29.54-98,30.72-34.99,22.32-38.83,22.32-38.83"/>
        <g>
          <path d="M202.57,244.59c-6.85,1.32-15.88,2.83-20.59,8.52-1.19,1.44.87,3.52,2.07,2.07,4.33-5.22,12.99-6.55,19.3-7.76,1.85-.36,1.07-3.18-.78-2.82h0Z"/>
          <g>
            <path d="M202.69,234.52c-7.01.32-13.53,2.55-19.2,6.69-1.51,1.1-.05,3.64,1.48,2.53,5.27-3.84,11.2-5.99,17.73-6.29,1.88-.09,1.89-3.01,0-2.93h0Z"/>
            <path d="M204.23,225.48c-6.87.12-13.3,2.21-18.88,6.24-1.51,1.09-.05,3.63,1.48,2.53,5.18-3.74,11-5.72,17.4-5.84,1.88-.03,1.89-2.96,0-2.93h0Z"/>
            <path d="M205.75,216.19c-6.48.08-12.49,2.17-17.63,6.13-1.47,1.13-.02,3.68,1.48,2.53,4.75-3.66,10.14-5.65,16.15-5.73,1.88-.02,1.89-2.95,0-2.93h0Z"/>
            <path d="M208.43,207.15c-6.29.04-11.94,2.28-16.77,6.26-1.45,1.2.63,3.26,2.07,2.07,4.23-3.48,9.21-5.37,14.7-5.4,1.88-.01,1.89-2.94,0-2.93h0Z"/>
            <path d="M210.88,198.86c-5.72-.02-10.78,2.25-14.95,6.1-1.39,1.28.69,3.35,2.07,2.07,3.61-3.34,7.92-5.26,12.88-5.24,1.88,0,1.89-2.92,0-2.93h0Z"/>
            <path d="M214.64,191.08c-5.1-.7-9.57,1.13-13.35,4.52-1.41,1.26.67,3.33,2.07,2.07,2.91-2.61,6.52-4.32,10.5-3.77,1.84.25,2.64-2.57.78-2.82h0Z"/>
            <path d="M217.34,184.06c-4.23-1.02-7.98,1.01-10.88,3.98-1.32,1.35.75,3.42,2.07,2.07,2.14-2.19,4.85-4,8.03-3.23,1.83.44,2.61-2.38.78-2.82h0Z"/>
            <path d="M222.68,178.75c-3.35-1.97-7.06-.49-9.94,1.64-1.5,1.11-.04,3.65,1.48,2.53,1.96-1.45,4.59-3.04,6.98-1.64,1.63.96,3.1-1.57,1.48-2.53h0Z"/>
          </g>
        </g>
        <path d="M241.57,121.76c-.98.18-2.37-.26-1.92,1.08.58,1.76-.1.42.52.39.23-.01.55-.63.79-.74,1.74-.83,3.02-2.04,5.11-1.88,3.47.27,5.41,3.76,5.35,6.97-.2,9.72-15.82,14.94-23.34,10.75-10.48-5.84-7.08-20.7,2.31-25.77,8.8-4.75,16.84-1.04,21.46,7.36,5.79,10.53,4.54,23.63.29,34.46-5.23,13.3-15.51,24.31-23.13,36.3-3.63,5.71-7.24,11.6-9.79,17.89-4.44,10.94-3.74,25.49-.04,36.44,4.81,14.21,16.75,23.54,31.1,26.95,5.68,1.35,11.5,1.81,17.32,1.57,5.15-.21,11-.92,15.99.78,2.79.95,4.99,2.93,7.31,4.66,8.22,6.15,17.18,6.92,26.56,9.89,8.91,2.82,17.1,8.05,22.11,16.1,3.46,5.55,5.28,12,5.69,18.5.19,3.01-.39,6.67-.32,9.19.11,3.86,4.11,8.17,6.19,11.25,4.55,6.74,9.54,13.97,16.08,18.93,2.24,1.7,4.66,3.05,7.52,3.18l-1.87-3.27c.44-.59-.74.91-1.07,1.31-1.24,1.49-2.54,2.94-3.86,4.36-4.56,4.9-9.48,9.47-14.63,13.73-17.16,14.2-37.25,24.95-58.65,31.15-16.34,4.74-33.26,6.7-50.26,6.29l2.17,2.17c.44-14.42.07-36.92-13.04-46.47-3.65-2.66-5.47-7.6-6.79-11.74-2.48-7.83-2.53-16.14-4.98-23.96-1.27-4.05-3.12-7.72-6.07-10.79-1.32-1.38-2.79-2.71-4.23-3.96-1.1-.96-9.69-6.76-4.51-8.35,1.7-.52,2.24-3.07.52-3.97-4.4-2.29-8.99-5.87-11.22-10.38-1.81-3.65-.94-7.73-1.9-11.6-.89-3.63-2.67-7.04-4.89-10.03-.78-1.05-2.47-2.91-2.75-3.53-1.38-3.06-1.57-7.45-1.87-10.72-.71-7.94-.25-15.99,1.14-23.84,3.54-20.06,12.71-38.93,25.32-54.84,9.41-11.86,21.74-23.15,27.35-37.58,1.02-2.62,2.76-8.48-.82-10.21-2.5-1.21-4.71,2.53-2.19,3.75-.38-.19-.03-.28-.04.34-.06,2.88-1.26,5.5-2.58,8.03-8.61,16.45-23.21,28.79-33.19,44.33-9.72,15.13-16.5,32.3-18.8,50.18-.94,7.31-1.15,14.71-.29,22.04.59,4.96,1.06,9.54,4.27,13.37,3.18,3.79,5.42,8.5,5.68,13.49.2,3.69.4,6.72,2.36,9.99,2.78,4.64,7.46,8.49,12.24,10.97l.52-3.97c-2.93.9-4.86,3.54-4.69,6.62.29,4.99,5.94,7.74,9.16,10.73,7.69,7.14,8.43,16.09,10.15,26.07,1.28,7.46,3.7,18.61,10.66,23.15.84.55,1.58.87.8.25.29.23.61.52.84.81,1.3,1.66,2.49,3.24,3.48,5.12,5.85,11.03,6.39,24.52,6.02,36.7-.04,1.19,1.02,2.14,2.17,2.17,46.74,1.12,92.94-17.22,125.35-51.12,2.4-2.51,4.76-5.1,6.86-7.88,1.06-1.4-.41-3.2-1.87-3.27-3.87-.18-7.35-4.24-9.78-6.86-3.53-3.81-6.62-8.02-9.54-12.3-1.99-2.92-3.63-6.29-5.8-9.06-1.24-1.58.15-1.21-.5.41.17-.42.13-1.01.21-1.45,2.26-12.04-2.08-26.16-10.14-35.14-7.21-8.04-17.57-12.45-28-14.43-4.42-.84-10.51-2.65-14.94-5.41-3.22-2.01-5.94-4.84-9.39-6.47-8.01-3.8-17.55-1.28-26.07-1.81-7.63-.48-15.32-2.43-21.95-6.32-8.15-4.79-13.76-12.44-16.24-21.53-1.65-6.03-1.96-12.35-1.56-18.57.19-3.04.48-6.12,1.06-9.11.08-.42-.15.68,0,0,.98-4.16,3.17-8.03,5.24-11.73,6.85-12.27,15.82-23.04,23.23-34.91,7.14-11.44,11.3-25.28,8.75-38.76-1.62-8.58-6.54-17.82-15.06-21.2-13.24-5.25-28.95,8.21-26.79,22.02.88,5.61,4.26,11.16,9.5,13.59,8.3,3.84,21.03-.02,26.22-7.41,3.86-5.5,3.48-14.18-2.86-17.75-4.34-2.45-14.07-.42-14.88,5.5-.57,4.23,4.77,3.45,7.28,2.99,2.74-.51,1.58-4.69-1.15-4.18h0Z"/>
        <path class="cls-9" d="M279.37,405.68c5.27,7.24,1.89,31.93-3.52,44.88-5.41,12.96-1.63,21.49-1.63,21.49,0,0,2.77,8.47,4.22,1.81,1.46-6.66,5.51-5.12,5.51-5.12,7.2.97,6.18-5.76,6.18-5.76,0,0-.79-4.14,3.49-3.35s7.93-7.37,7.14-13.11c-.79-5.74,4.58-2.43,4.58-2.43,12.63,5.01,26.09-17.36,27.61-19.96,1.52-2.6,4.9-5.51,5.7-2.96.8,2.54,10.56-.48,13.57-4.22,3.02-3.75,6.57,2.05,12.53-1.08,5.97-3.13,5.72-31.28-3.27-37.84-8.99-6.56-11.64-30.04-15.65-40.54-4.01-10.5-9.97-3.3-9.97-3.3"/>
        <path d="M274.98,404.32c5.51,3.59,5.06,11.86,4.77,17.6-.4,7.97-1.89,16.02-4.36,23.61s-5.28,13.81-4.47,21.61c.36,3.48,1.01,5.7,2.3,8.16,1.84,3.53,5.21,4.49,6.99.33,1.14-2.68,1.05-4.32,3.75-4.73,2.67-.41,4.86.14,6.82-2.24,1.06-1.29,1.46-2.89,1.57-4.53.16-2.27-.52-1.91,2.18-2.31,5.65-.82,8.24-7.7,8.48-12.74.07-1.49-.63-3.32.4-3.56.21-.05,1.14.57,1.36.65,2.55.86,5.17,1.03,7.79.37,5.5-1.38,10.1-5.54,13.79-9.66,3.1-3.46,5.6-7.27,8.16-11.13.34-.51,2.04-3.48,2.27-3.49-.02,0,1.24,1.35,1.47,1.48,1.95,1.13,4.97.36,6.94-.24,2.63-.8,4.93-2.09,7.16-3.67,1.56-1.1,1.98-1.85,4.01-1.71,1.36.09,2.68.77,4.09.83,4.76.21,7.71-2.38,9.11-6.67,3.11-9.5,2.04-23.52-3.28-32.07-1.43-2.3-3.5-3.61-5.26-5.59-2.59-2.91-4.11-6.81-5.38-10.43-2.64-7.54-4.1-15.41-6.32-23.06-1.35-4.65-3.69-12.35-9.93-11.44-3.95.58-6.36,4.24-7.74,7.64-1.05,2.59,3.15,3.71,4.18,1.15.65-1.62,1.3-2.81,2.48-3.65,3.12-2.2,4.74,1.4,5.75,4.08,2.07,5.49,3.11,11.41,4.6,17.08,1.52,5.79,3.17,11.72,6.05,17.01,2.32,4.26,6.58,6.71,8.68,10.98,2.46,4.98,3.17,10.94,3.24,16.43.05,3.57.35,10.36-2.48,13.16-3.4,3.37-9.03-1.8-13.11,1.49-2.55,2.05-4.76,3.82-8.09,4.57-1.06.24-1.96.37-2.67.06s-.97-1.22-1.9-1.49c-3.83-1.11-6.55,3.75-8.25,6.4-2.56,4-5.37,7.85-8.73,11.22-3.87,3.88-9.24,8.16-15.06,6.33-2.67-.84-5.76-2.32-7.38,1.1-1.11,2.33-.04,5.43-.61,7.94-.39,1.71-1.01,3.71-2.29,4.99-1.71,1.7-3.24.75-5.18,1.46-3.16,1.15-2.67,4.59-2.86,6.03-.61,4.56-4.98,1.79-7.97,3.56-1.46.86-3,2.86-3.28,4.56-.44,2.7-.15.85.94,2.62-.25-.41-.58-.83-.74-1.29-.19-.55-.44-1.1-.65-1.65-.13-.34-.76-2.39-.96-3.76-.58-3.83-.14-7.81.86-11.53,2.06-7.69,5.2-14.74,6.56-22.68,1.7-9.94,4.52-26.33-5.59-32.92-2.35-1.53-4.52,2.23-2.19,3.75h0Z"/>
        <g>
          <path d="M197.76,288.98l5.33-1.5,27.63,10.59s7.09,14.78,12.35,15.2c5.26.42,21.63,1.61,15.47,7.66-6.16,6.05-24.2,28.04-13.61,43s18.01,30.97,18.49,37.9c.49,6.93,2.96-22.71,11.16-30.78,8.21-8.07,11.95-10.71,11.95-10.71,0,0,4.21-9.56,7.68-11.99,3.47-2.43,9.64-6.06,10.35-10.19.71-4.13,13.98-2.85,18-10.17,4.01-7.32,24.37-5.79,22.43-15.4-1.94-9.61,3.51,11.99,2.72,18.54-.79,6.56-3.14.66-3.14.66,0,0-18.82,1.72-26.88,7.07-8.06,5.34-21.5,16.14-22.84,22.5-1.34,6.36,14.49-7.06,16.27-6.63,1.78.43-2.5,18.08-15.32,27.75-12.81,9.67-17.16,23.26-17.16,23.26,0,0,3.32,6.54,2.69,10.95s-36.93,5.08-36.93,5.08c0,0,5.02-34.99-11.68-45.02,0,0-10.11-10.49-10.45-23.07-.33-12.59-5.05-22.26-12.33-27.26-7.28-5-7.62-8.8-5.27-11.08,2.35-2.28-6.88.11-11.55-20.25-4.66-20.36,4.62-6.1,4.62-6.1Z"/>
          <path d="M198.32,290.99l2.66-.75c.82-.23,3.39-.47,1.59-.73,1.13.17,2.39.92,3.45,1.32,5.1,1.95,10.19,3.91,15.29,5.86,2.09.8,4.17,1.6,6.26,2.4.53.2,1.24.62,1.81.69,1.47.2,0,.71-.38-.49,1.43,4.41,5.09,9.43,8.28,12.72,3.78,3.88,7.94,3.31,12.96,4.1,1.12.18,7.38.88,7.52,2.5.09,1.07-4.34,4.81-5.09,5.73-7.82,9.52-16.54,23.61-11.77,36.36,1.75,4.67,5.29,8.63,7.89,12.84,2.94,4.77,5.67,9.69,8.03,14.78,1.77,3.82,3.55,7.9,4.32,12.07.24,1.33,0,3.54,1.47,4.28.9.46,1.78.3,2.53-.33,1.53-1.27,1.6-5.09,1.95-6.83,1-4.88,2.07-9.76,3.62-14.5,1.94-5.96,4.55-9.81,9.11-14.09,2.51-2.36,6.01-4.49,8.21-7.12,2.86-3.42,3.54-8.3,7.02-11.45,2.08-1.89,4.73-3.15,6.87-4.99,1.1-.95,2.19-1.97,3.04-3.16.71-1,.94-2.62,1.64-3.49,1.21-1.5,4.03-1.78,5.79-2.29,2.57-.74,5.24-1.52,7.54-2.94,1.95-1.2,3.04-2.74,4.46-4.45,1.76-2.12,3.88-3.11,6.47-4.04,4.5-1.61,10.15-2.4,13.8-5.74,1.35-1.23,2.24-2.72,2.49-4.53.21-1.53-.62-3.26-.45-4.57-1.3.35-2.6.7-3.89,1.05-.08-.14.6,2.63.78,3.46.47,2.15.88,4.31,1.25,6.48.39,2.35.76,4.73.86,7.11.03.59-.36,3.56-.22,3.8,1.6.58,2.06.45,1.38-.39-.17-.49-.25-.64-.23-.44-.33-.79-1.04-1.63-2.01-1.53-6.07.57-12.21,1.6-18.08,3.26-8.12,2.3-14.58,7.06-20.97,12.44-3.99,3.35-13.68,10.63-12.81,16.92.74,5.4,7.32,1.48,9.79-.03,2.26-1.38,5.5-2.91,7.4-4.77-.04.04,1-.51,1.01-.58.17-.81-1.01-1.32-1.5-.93-.35.27-.75,3.78-.89,4.24-2.97,9.76-9.23,16.3-16.73,22.8-6.15,5.32-11.09,12.26-14.24,19.76-.67,1.58-1.06,2.34-.71,3.99.42,1.96,3.86,7.32,2.44,9.2-1.13,1.49-6.4,1.68-8.06,1.91-4,.56-8.04.87-12.06,1.13-4.91.32-9.83.54-14.76.64l2.01,2.64c1.09-7.73,1.1-15.74.03-23.46-.8-5.76-2.29-11.66-5.44-16.63-2.44-3.85-6.24-5.97-8.94-9.49-5.3-6.91-7.11-13.91-7.9-22.43-.71-7.66-3.1-15.36-8.19-21.27-2.44-2.83-5.75-4.5-8.31-7.16-1.14-1.18-2.51-2.68-2.01-4.43.21-.73,1.14-1.13,1.34-1.93.63-2.5-1.69-3.27-3.32-4.5-6.21-4.69-8.34-13.86-9.45-21.11-.01-.09-.1-2.16-.29-2.64-.03-.37-.03-.74,0-1.11.14-.69-.29-.68-1.29.04.33.49,1.09.97,1.51,1.44.67.74,1.26,1.57,1.8,2.4,1.47,2.24,5.09.15,3.61-2.11-1.22-1.85-2.87-4.47-4.96-5.41-3.83-1.73-4.98,2.13-4.82,5.21.4,7.6,2.88,16.5,7.48,22.67,1.17,1.57,2.51,2.94,4.09,4.09.27.19,1.3,1.1,1.6,1.06.64-.1.92-2.31-.54-.76-4.53,4.79,3.33,11.03,6.48,13.43,8.82,6.72,10.43,16.57,11.38,26.96.69,7.58,4.21,14.64,8.87,20.56,3.18,4.04,7.37,6.39,9.72,11.24,4.85,10.02,4.89,24.54,3.53,34.24-.18,1.29.52,2.67,2.01,2.64,10.59-.2,21.63-.39,32.01-2.61,4.97-1.06,7.69-2.5,6.87-8.07-.31-2.12-.98-4.15-1.79-6.13-.16-.38-.33-.95-.54-1.27-.88-1.33.25-1.08-.28.47.73-2.1,1.7-4.12,2.76-6.07,2.17-3.98,4.82-7.68,7.95-10.96,3.8-4,8.49-6.93,12.05-11.18,4.69-5.59,8.98-13.04,9.99-20.4.54-3.92-1.37-6-5.1-4.03-2.5,1.32-4.79,3.11-7.18,4.62-1.08.68-2.66,1.24-3.58,2.08-.37.33-1.26.29-1.54.63.62,1.27.97,1.35,1.05.23.2-.54.45-1.05.75-1.54,2.44-4.61,7.27-8.46,11.21-11.73s8.38-6.98,13.21-9.07c6.91-2.98,14.87-4.25,22.33-4.95l-2.01-1.53c.74,1.78,2.05,4.41,4.42,3.89,3.12-.68,2.97-5.53,2.87-7.97-.17-4.06-.94-8.14-1.73-12.12-.41-2.1-.57-5.16-1.73-7.04-1.18-1.91-3.64-.9-3.89,1.05-.13.98.46,2.01.49,2.98.08,2.73-1.93,3.79-4.2,4.78-4.23,1.85-8.92,2.56-13.05,4.69-4.43,2.28-6.06,6.82-10.87,8.65-3.4,1.29-8.8,1.5-11.32,4.45-1.53,1.79-1.79,4.03-3.6,5.81-2.25,2.23-5.16,3.55-7.54,5.61-3.55,3.08-5.34,7.68-7.49,11.73-.49.92.9-.79.33-.17-.29.32-.73.56-1.08.83-1.66,1.28-3.23,2.69-4.78,4.1-4.05,3.66-7.98,7.08-10.32,12.08-2.28,4.86-3.67,10.11-4.87,15.32-.55,2.41-1.03,4.83-1.53,7.25-.15.74-.47,1.61-.49,2.36-.02.82-.84,1.45,0,.76.84-.11,1.69-.22,2.53-.33,2.17,1.11.37,1.59.77.39.11-.33-.12-.99-.17-1.34-.23-1.43-.59-2.84-1.02-4.22-1.17-3.8-2.8-7.48-4.51-11.06-2.08-4.32-4.4-8.53-6.9-12.63-2.7-4.43-6.75-8.75-8.34-13.73-2.53-7.93,1.36-16.57,5.45-23.25,3.13-5.12,7.68-9.01,10.96-13.88,2.56-3.8-.41-6.68-4.03-7.97-4.76-1.69-12.21-.38-16.01-3.64-4.05-3.47-5.06-8.87-8.36-12.68-1.79-2.07-5.96-2.8-8.43-3.74-5.66-2.17-11.32-4.34-16.98-6.51-4.04-1.55-5.61-1.05-9.93.16-2.58.73-1.49,4.76,1.11,4.03Z"/>
        </g>
        <g>
          <g>
            <path d="M197.56,282.43s-39.43-17.63-51.77-33.21c0,0-1.56-2-3.2-1.16-1.64.84-.95,2.59-.29,4.08s27.24,42.15,60.8,45c0,0,8.87-3.98-5.54-14.7Z"/>
            <path d="M198.52,280.78c-10.06-4.51-19.89-9.7-29.29-15.44-6.89-4.21-13.86-8.76-19.52-14.58-1.57-1.61-3.03-4.24-5.42-4.72-2.77-.56-4.79,1.7-4.54,4.31.27,2.9,2.83,5.76,4.46,7.98,3.37,4.59,7.02,8.99,10.91,13.14,10.61,11.32,23.64,21.74,38.84,25.93,4.16,1.15,10.01,3.43,12.81-1.09,3.78-6.12-4.14-12.37-8.24-15.53-1.94-1.5-3.85,1.81-1.93,3.3,1.64,1.26,11.21,8.91,5.83,11.25-1.05.46-5.4-1.07-6.84-1.45-3.48-.91-6.85-2.19-10.09-3.76-11.5-5.57-21.34-14.22-29.81-23.68-1.07-1.2-13.19-14.81-11.75-16.07-.23.2,10.3,9.39,11.5,10.29,5.15,3.87,10.62,7.31,16.19,10.54,8.09,4.69,16.44,9.05,24.98,12.88,2.22,1,4.17-2.29,1.93-3.3Z"/>
          </g>
          <path d="M197.56,282.43s-39.43-17.63-51.77-33.21c0,0-1.56-2-3.2-1.16-1.64.84-.95,2.59-.29,4.08s27.24,42.15,60.8,45c0,0,8.87-3.98-5.54-14.7Z"/>
        </g>
        <g>
          <g>
            <path d="M224.75,282.4s-39.43-17.63-51.77-33.21c0,0-1.56-2-3.2-1.16s-.95,2.59-.29,4.08c.66,1.48,27.24,42.15,60.8,45,0,0,8.87-3.98-5.54-14.7Z"/>
            <path d="M225.71,280.75c-10.06-4.51-19.89-9.7-29.29-15.44-6.89-4.21-13.86-8.76-19.52-14.58-1.57-1.61-3.03-4.24-5.42-4.72-2.77-.56-4.79,1.7-4.54,4.31.27,2.9,2.83,5.76,4.46,7.98,3.37,4.59,7.02,8.99,10.91,13.14,10.61,11.32,23.64,21.74,38.84,25.93,4.16,1.15,10.01,3.43,12.81-1.09,3.78-6.12-4.14-12.37-8.24-15.53-1.94-1.5-3.85,1.81-1.93,3.3,1.64,1.26,11.21,8.91,5.83,11.25-1.05.46-5.4-1.07-6.84-1.45-3.48-.91-6.85-2.19-10.09-3.76-11.5-5.57-21.34-14.22-29.81-23.68-1.07-1.2-13.19-14.81-11.75-16.07-.23.2,10.3,9.39,11.5,10.29,5.15,3.87,10.62,7.31,16.19,10.54,8.09,4.69,16.44,9.05,24.98,12.88,2.22,1,4.17-2.29,1.93-3.3Z"/>
          </g>
          <path class="cls-5" d="M224.75,282.4s-39.43-17.63-51.77-33.21c0,0-1.56-2-3.2-1.16s-.95,2.59-.29,4.08c.66,1.48,27.24,42.15,60.8,45,0,0,8.87-3.98-5.54-14.7Z"/>
        </g>
        <path d="M338.58,419.06s1.51,2.74,7.46-1.13c5.95-3.87,10.29-11.8,14.26-8.69s3.4-11.14,3.4-11.14c0,0-.66-11.61-8.59-17.09-7.93-5.48-8.59-12.75-8.59-12.75,0,0-1.42-32.1-5.66-31.53,0,0-2.08-.47-3.9,1.29-1.83,1.76-1.76,2.01-2.64,2.01s2.93-7.62,2.93-7.62l8.65,3.49,2.3,10.48,8.5,26.66,10.54,17.5,1.16,17.91-4,6.89-9.41,1.51-12.02,4.75-5.76-.54,1.38-2.01Z"/>
        <path d="M358.64,380.2l5.65,8.63s3.14-9.25-5.65-8.63Z"/>
        <path d="M275.72,402.12s10.32-.75,11.99,17.04c1.67,17.79-6.05,33.56-5.23,35.23.81,1.67,5.66,2.61,7.4-10.13,1.74-12.74,11.1-16.45,12.24-12.29,1.13,4.16,21.39,1.05,33.01-12.34,0,0-10.13,26.83-29.78,24.45,0,0-4.04-3.65-4.58,2.43-.54,6.08-.69,11-8.34,14.37,0,0-2.42-1.22-2.29,3.74.13,4.96-8.64,4.28-8.64,4.28l-4.38,5.3s-8.06-10.22-1.83-22.24c6.23-12.02,11.97-39.62.44-49.86Z"/>
      </g>
      <path d="M284.85,290.14s-3.03,3.9-7.87,2.03c-3.68-1.42-2.42-6.65-2.42-6.65,0,0,9.64,3.41,10.29,4.62Z"/>
      <circle class="cls-5" cx="279.19" cy="288.24" r=".93"/>
      <path class="cls-5" d="M280.11,291.51s3.58-.25,3.67-1.58c.1-1.33-2.48.82-2.48.82,0,0-.7.44-1.08.37s-.45.43-.11.4Z"/>
      <path d="M285.39,289.29s-4.2-4.47-10.82-5.16c0,0-1.23-.06-1.4.5s-.1.96,2.3,1.44,8.21,3.61,8.69,4.56,1.34.52,1.34.52c0,0,1.38-.55-.12-1.86Z"/>
    </g>
    <path d="M345.83,337.49s6.04,30.58,10.85,35.56c4.8,4.98,5.04,7.99,8.43,3.97,3.4-4.03,9.63-11.58,9.63-11.58,0,0-11.73-5.73-14.45-11.74-2.73-6.01-14.45-16.2-14.45-16.2Z"/>
    <polygon class="cls-1" points="267.47 418.86 267.47 424.04 284.18 423.21 285.12 416.98 267.47 418.86"/>
    <path d="M323.94,428.53s3.12-2.16,7.59-6.77c4.47-4.61,5.94-5.05,7.78-4.2s4.97,2.17,10.15-2.36-.52,5.86-.52,5.86l-.06.77s-5.62,3.49-9.21,2.94-5.71,1.82-6.65,3-9.09.76-9.09.76Z"/>
    <path class="cls-3" d="M375.95,361.88s-45.93,70.55-134.11,62.16"/>
    <g>
      <path class="cls-5" d="M279.37,405.68c5.27,7.24,1.89,31.93-3.52,44.88-5.41,12.96-1.63,21.49-1.63,21.49,0,0,2.77,8.47,4.22,1.81s5.51-5.12,5.51-5.12c7.2.97,6.18-5.76,6.18-5.76,0,0-.79-4.14,3.49-3.35s7.93-7.37,7.14-13.11c-.79-5.74,4.58-2.43,4.58-2.43,12.63,5.01,26.09-17.36,27.61-19.96s4.9-5.51,5.7-2.96,10.56-.48,13.57-4.22c3.02-3.75,6.57,2.05,12.53-1.08,5.97-3.13,5.72-31.28-3.27-37.84-8.99-6.56-11.64-30.04-15.65-40.54-4.01-10.5-9.97-3.3-9.97-3.3"/>
      <path d="M274.99,404.32c5.51,3.59,5.06,11.86,4.77,17.6-.4,7.97-1.89,16.02-4.36,23.61-2.36,7.22-5.28,13.81-4.47,21.61.36,3.48,1.01,5.7,2.3,8.16,1.84,3.53,5.21,4.49,6.99.33,1.14-2.68,1.05-4.32,3.75-4.73,2.67-.41,4.86.14,6.82-2.24,1.06-1.29,1.46-2.89,1.57-4.53.16-2.27-.52-1.91,2.18-2.31,5.65-.82,8.24-7.7,8.48-12.74.07-1.49-.63-3.32.4-3.56.21-.05,1.14.57,1.36.65,2.55.86,5.17,1.03,7.79.37,5.5-1.38,10.1-5.54,13.79-9.66,3.1-3.46,5.6-7.27,8.16-11.13.34-.51,2.04-3.48,2.27-3.49-.02,0,1.24,1.35,1.47,1.48,1.95,1.13,4.97.36,6.94-.24,2.63-.8,4.93-2.09,7.16-3.67,1.56-1.1,1.98-1.85,4.01-1.71,1.36.09,2.68.77,4.09.83,4.76.21,7.71-2.38,9.11-6.67,3.11-9.5,2.04-23.52-3.28-32.07-1.43-2.3-3.5-3.61-5.26-5.59-2.59-2.91-4.11-6.81-5.38-10.43-2.64-7.54-4.1-15.41-6.32-23.06-1.35-4.65-3.69-12.35-9.93-11.44-3.95.58-6.36,4.24-7.74,7.64-1.05,2.59,3.15,3.71,4.18,1.15.65-1.62,1.3-2.81,2.48-3.65,3.12-2.2,4.74,1.4,5.75,4.08,2.07,5.49,3.11,11.41,4.6,17.08,1.52,5.79,3.17,11.72,6.05,17.01,2.32,4.26,6.58,6.71,8.68,10.98,2.46,4.98,3.17,10.94,3.24,16.43.05,3.57.35,10.36-2.48,13.16-3.4,3.37-9.03-1.8-13.11,1.49-2.55,2.05-4.76,3.82-8.09,4.57-1.06.24-1.96.37-2.67.06s-.97-1.22-1.9-1.49c-3.83-1.11-6.55,3.75-8.25,6.4-2.56,4-5.37,7.85-8.73,11.22-3.87,3.88-9.24,8.16-15.06,6.33-2.67-.84-5.76-2.32-7.38,1.1-1.11,2.33-.04,5.43-.61,7.94-.39,1.71-1.01,3.71-2.29,4.99-1.71,1.7-3.24.75-5.18,1.46-3.16,1.15-2.67,4.59-2.86,6.03-.61,4.56-4.98,1.79-7.97,3.56-1.46.86-3,2.86-3.28,4.56-.44,2.7-.15.85.94,2.62-.25-.41-.58-.83-.74-1.29-.19-.55-.44-1.1-.65-1.65-.13-.34-.76-2.39-.96-3.76-.58-3.83-.14-7.81.86-11.53,2.06-7.69,5.2-14.74,6.56-22.68,1.7-9.94,4.52-26.33-5.59-32.92-2.35-1.53-4.52,2.23-2.19,3.75h0Z"/>
      <path d="M338.59,419.06s1.51,2.74,7.46-1.13c5.95-3.87,10.29-11.8,14.26-8.69s3.4-11.14,3.4-11.14c0,0-.66-11.61-8.59-17.09s-8.59-12.75-8.59-12.75c0,0-1.42-32.1-5.66-31.53,0,0-2.08-.47-3.9,1.29-1.83,1.76-1.76,2.01-2.64,2.01s2.93-7.62,2.93-7.62l8.65,3.49,2.3,10.48,8.5,26.66,10.54,17.5,1.16,17.91-4,6.89-9.41,1.51-12.02,4.75-5.76-.54,1.38-2.01Z"/>
      <path d="M358.65,380.2l5.65,8.63s3.14-9.25-5.65-8.63Z"/>
      <path d="M275.72,402.12s10.32-.75,11.99,17.04c1.67,17.79-6.05,33.56-5.23,35.23.81,1.67,5.66,2.61,7.4-10.13,1.74-12.74,11.1-16.45,12.24-12.29,1.13,4.16,21.39,1.05,33.01-12.34,0,0-10.13,26.83-29.78,24.45,0,0-4.04-3.65-4.58,2.43-.54,6.08-.69,11-8.34,14.37,0,0-2.42-1.22-2.29,3.74.13,4.96-8.64,4.28-8.64,4.28l-4.38,5.3s-8.06-10.22-1.83-22.24c6.23-12.02,11.97-39.62.44-49.86Z"/>
    </g>
    <path class="cls-2" d="M355.08,268.43c-14.38-12.92-36.51-11.73-49.43,2.65l-3.34,3.72-9.67-4.2-2.23,2.48,59.52,53.45,4.45-4.96,3.34-3.72c12.92-14.38,11.73-36.51-2.65-49.43ZM310.99,282.6l5.69-3.85,2.48,2.23-3.22,6.07-4.96-4.45ZM320.91,291.5l5.69-3.85,2.48,2.23-3.21,6.07-4.96-4.45ZM330.83,300.41l5.69-3.85,2.48,2.23-3.21,6.07-4.96-4.45ZM346.17,278.35c-4.45-4-10.1-5.81-15.64-5.51l-.36-6.66c7.24-.39,14.63,1.98,20.45,7.21,5.82,5.23,8.97,12.32,9.36,19.56l-6.66.36c-.3-5.54-2.71-10.96-7.16-14.96ZM340.75,309.32l5.69-3.85,2.48,2.23-3.22,6.07-4.96-4.45Z"/>
    <path d="M238.91,123.66c.12-.2.12-.35,0-1.28-.09-.75-.23-2.4-.28-3.3-.01-.22-.05-.6-.09-.84-.03-.24-.11-.86-.18-1.39-.06-.52-.13-.98-.15-1.02-.04-.08-.22-1.6-.24-2.08-.04-.86-.08-1.3-.19-2.07-.07-.45-.11-.97-.1-1.15,0-.18-.08-.82-.2-1.42-.12-.6-.23-1.23-.23-1.4,0-.17-.11-.7-.23-1.17-.12-.47-.28-1.19-.35-1.6-.17-.99-.44-2.07-.53-2.13-.04-.02-.13-.03-.19-.02-.06.02-.16.12-.22.22-.13.22-.12,1.11.03,1.62.05.18.1.48.11.66.01.18.06.5.11.7.15.64.27,1.33.36,2.05.05.38.14,1.06.21,1.51.07.45.14,1.03.16,1.3.02.27.06.69.1.93.04.24.08.67.11.97.07.9.1,1.35.12,1.64.03.4.31,2.55.4,3.01.1.55.25,1.97.3,2.94,0,.16.07.78.14,1.4.12,1.05.36,1.9.57,2.02.16.1.38.05.47-.09Z"/>
    <path d="M251.82,97.74c-.02-.08-.05-.46-.07-.85-.1-1.61-.18-2.15-.42-3.08-.14-.54-.34-1.17-.45-1.39-.28-.57-.82-1.41-.94-1.48-.06-.03-.24-.22-.41-.41-.28-.31-.43-.42-1.82-1.25-1.31-.77-1.58-.91-1.94-1-.23-.06-.58-.17-.79-.26-.21-.09-.44-.18-.51-.2-.07-.02-.31-.1-.53-.17-.22-.07-.68-.2-1.03-.27-.49-.1-.74-.2-1.13-.42-.56-.32-1.02-.78-1.11-1.12-.07-.26-.48-.93-.75-1.23-.33-.36-.55-.47-.88-.41-.16.03-.44.06-.62.07-.18.01-.67.1-1.08.21-.41.1-.79.17-.82.15-.03-.02-.13.01-.21.07-.08.06-.26.11-.4.12-.14,0-.49.03-.79.05-.3.02-.69.05-.86.06-.18,0-.65.1-1.04.2l-.72.18-.26.43c-.14.24-.38.58-.53.75-.15.17-.32.37-.38.43-.06.07-.18.13-.28.15-.1.02-.29.06-.43.09-.14.03-.39.02-.56-.02-.17-.04-.37-.07-.45-.05-.17.03-.79-.17-1.06-.34-.23-.14-.97-.94-1.09-1.16-.14-.27-.54-.62-.87-.77-.46-.21-.94-.36-1.17-.37-.11,0-.35-.02-.54-.03s-.47.01-.63.06c-.33.09-1,.19-1.12.18-.17-.02-.7.19-.84.34-.08.08-.19.17-.24.19-.05.02-.27.2-.48.39-.3.28-.42.42-.51.67-.07.17-.16.34-.19.37-.13.11-.51,1.35-.6,2-.24,1.63-.21,2.59.14,4.11.38,1.64,1,3,1.64,3.62.63.61,1.38.93,2.03.87.19-.02.38-.02.41,0,.03.02.13,0,.23-.05.09-.05.31-.08.48-.08.35,0,.7-.11.79-.26.03-.06.14-.1.23-.1.25,0,.74-.12.95-.25.14-.09.27-.27.55-.81.35-.67.39-.71.7-.91.43-.28.95-.31,1.63-.1.7.21,1.89,1.17,2.32,1.87.07.11.15.22.19.24.07.04.46.77.75,1.39.08.17.23.39.34.51.24.24.31.5.25.95-.06.46.01,1.44.29,3.95.06.53.12,1.17.14,1.42.02.25.06.73.09,1.06.03.33.11,1.16.18,1.84.07.68.15,1.49.19,1.8.04.31.08.76.1,1,.01.25.07.88.14,1.41.06.53.12,1.04.12,1.14,0,.1.07.69.14,1.31.13,1.15.2,1.85.34,3.38.04.48.1,1.07.14,1.31.11.81.16,1.3.19,1.74.02.24.07.7.11,1.04.04.3.09.71.14,1.21.15.33.26.68.34,1.03.26.13.52.27.74.44-.02-.3-.06-.65-.09-.89-.04-.31-.09-.87-.11-1.25-.02-.38-.06-.81-.09-.95-.03-.14-.05-.31-.05-.39,0-.13-.15-1.73-.21-2.22-.04-.31-.17-1.72-.22-2.35-.02-.26-.08-.8-.13-1.19-.1-.75-.3-2.72-.35-3.43-.02-.23-.06-.7-.1-1.03-.04-.34-.09-.75-.1-.91-.01-.16-.04-.46-.07-.66-.02-.2-.09-.75-.14-1.24-.05-.49-.12-1.16-.16-1.51-.09-.78-.11-.97-.15-1.57-.02-.27-.05-.66-.07-.88-.02-.22-.07-.63-.1-.91-.03-.28-.08-.71-.11-.96-.03-.24-.07-.61-.08-.81-.01-.2-.04-.56-.07-.8-.06-.54-.02-.62.22-.41.16.14.22.15.62.05.47-.11.48-.11.92.35.23.24.59.94.72,1.4.04.15.16.48.26.74.24.6.95,3.7,1.12,4.88.07.51.17,1.18.21,1.5.05.32.1.91.13,1.31s.07.91.1,1.13c.06.39.13,1.39.1,1.45,0,.02.02.26.06.53.12.76.25,2.19.26,2.69,0,.24.02.54.04.66.02.12.05.49.07.81.03.32.06.6.08.61.02.01.07.35.12.75.04.4.1.89.12,1.08.02.19.04.52.03.74,0,.22.02.53.06.71.04.17.09.58.11.89.02.32.07.76.11.98.04.22.05.43.03.46-.02.03-.01.24.02.48.02.18.03.34.05.51.19-.02.38-.03.58-.03.09,0,.17.01.26.02.17-.05.35-.09.54-.12.18-.08.37-.16.57-.22.21-.17.44-.33.69-.46.09-.19.17-.39.28-.57,0-.21.04-.42.06-.63-.02-.28-.02-.56,0-.84-.02-.19-.04-.37-.05-.54-.07-.63-.13-1.27-.14-1.42-.11-1.67-.16-2.21-.35-4.45-.03-.4-.08-.91-.09-1.14-.02-.23-.08-.87-.13-1.44-.05-.56-.12-1.4-.16-1.85-.04-.46-.11-1.26-.17-1.78-.06-.52-.12-1.21-.14-1.52-.03-.56-.1-1.38-.21-2.52-.03-.31-.09-1.14-.14-1.84-.04-.7-.1-1.43-.13-1.62-.04-.28-.1-1.37-.12-2.23,0-.1.04-.22.09-.27.07-.06.07-.12,0-.2-.05-.06-.08-.13-.06-.17.02-.03,0-.19-.05-.34-.08-.26-.07-.33.14-.75.19-.4.25-.48.39-.51.1-.03.26-.17.42-.38.25-.33.26-.36.29-1,.02-.37.08-.97.14-1.35.1-.66.12-.72.48-1.34.58-.99,1.11-1.41,1.81-1.44.84-.03,1.2.08,1.96.61.32.23.64.48.7.56.06.08.25.27.42.42.3.27,1.17,1.53,1.43,2.07.38.81.52,1.19.58,1.59.04.25.13.7.2,1.02.07.31.15.89.18,1.29.05.86.1,1.03.36,1.18.18.11.2.1.39-.13.29-.35.34-.76.28-2.08,0-.16.02-.38.07-.51.04-.12.07-.29.05-.36ZM240.62,98.58c-.07.12-.14.22-.15.22,0,0-.17-.08-.36-.16-.36-.17-1.46-.35-1.76-.29-.1.02-.29.03-.42.03-.14,0-.49.04-.79.09-.3.05-.56.08-.59.07-.03-.02-.25.05-.49.16-.35.15-.51.26-.73.52-.19.22-.28.31-.38.27-.05-.03-.11-.1-.18-.22-.13-.21-.11-.43.06-.53.06-.04.25-.23.41-.41.41-.47.65-.6,1.47-.81.76-.2,1.79-.2,2.36-.02.52.17.76.23.99.24.13,0,.26.04.29.08.03.04.12.13.2.2.21.2.22.31.08.56Z"/>
    <path d="M246.01,149.12c-.01-.15-.05-.47-.08-.72-.03-.24-.05-.51-.04-.58s0-.31-.02-.53c-.03-.22-.06-.7-.08-1.09-.02-.38-.04-.72-.06-.74-.01-.03-.03-.18-.04-.34-.03-.36-.08-.73-.24-1.75-.07-.44-.16-1.04-.19-1.35-.01-.11-.04-.27-.07-.43-1.09.53-2.22.98-3.37,1.35.01.23.02.47.03.72.01.28,0,.59-.01.69-.08.5-.06,1.14.07,2.34.08.72.16,1.74.17,2.27.01.53.05,1.36.08,1.84.06.94,0,2.51-.16,3.75-.05.42-.09.86-.07.99.02.27-.2,1.02-.49,1.64-.24.51-.2.68.19.84.14.06.36.12.48.12.12,0,.33.03.46.06.29.05.94-.15,1.31-.41.39-.27.93-1.12,1.17-1.81.26-.76.29-.77.27-.09-.03,1.01-.57,2.13-1.26,2.57-.5.33-1,.49-1.46.48-.35,0-.46-.04-.84-.26-.47-.28-.59-.43-1.09-1.46-.2-.4-.37-1.02-.31-1.13.03-.06-.02-.97-.07-1.32-.08-.56-.59-4.78-.68-5.69-.01-.14-.03-.49-.03-.77,0-.29-.04-.62-.07-.75-.07-.29-.26-2.15-.27-2.65,0-.21-.04-.55-.07-.75-.02-.1-.04-.29-.07-.52-.31.06-.62.12-.94.17.05.45.09.87.11,1.13.1,1.13.2,2.05.37,3.54.07.62.15,1.39.17,1.71.02.32.07.78.11,1.02.06.41.27,2.49.36,3.51.02.24.05.58.07.76.02.18.01.44-.02.56-.06.28.21,1.21.47,1.64.1.17.27.47.37.67.25.51.62.88,1.21,1.23.92.54,2.04.65,2.58.25.11-.08.22-.13.24-.11.03.02.21-.05.4-.14.39-.2.86-.73,1.32-1.5.44-.73.57-1.36.59-2.77.01-.92-.1-2.63-.21-3.16-.05-.23-.22-2.04-.28-3.03Z"/>
  </g>
  <g>
    <text class="cls-4" transform="translate(608.52 280.3) scale(1.21 1)"><tspan x="0" y="0">MOKSHA</tspan><tspan x="-143.84" y="115.53">CONSTRUCTION</tspan></text>
    <text class="cls-13" transform="translate(1202.08 386.65)"><tspan x="0" y="0">™</tspan></text>
  </g>
  <text class="cls-8" transform="translate(571.7 466.09)"><tspan x="0" y="0">Ge</tspan><tspan class="cls-6" x="28.45" y="0">n</tspan><tspan x="42.48" y="0">e</tspan><tspan class="cls-12" x="54.96" y="0">r</tspan><tspan x="63.05" y="0">al </tspan><tspan class="cls-10" x="86.21" y="0">C</tspan><tspan x="100.59" y="0">ont</tspan><tspan class="cls-12" x="135.92" y="0">r</tspan><tspan class="cls-6" x="144.02" y="0">a</tspan><tspan class="cls-14" x="156.25" y="0">c</tspan><tspan class="cls-11" x="168.01" y="0">t</tspan><tspan x="176" y="0">or | </tspan><tspan class="cls-10" x="214.16" y="0">C</tspan><tspan x="228.54" y="0">onstru</tspan><tspan class="cls-15" x="296.16" y="0">c</tspan><tspan class="cls-7" x="307.92" y="0">tion Man</tspan><tspan class="cls-6" x="400.13" y="0">a</tspan><tspan x="412.36" y="0">ge</tspan><tspan class="cls-6" x="439.01" y="0">m</tspan><tspan x="460.97" y="0">ent</tspan></text>
</svg>