<?xml version="1.0" encoding="utf-8"?>
<!-- Generator: Adobe Illustrator 28.0.0, SVG Export Plug-In . SVG Version: 6.00 Build 0)  -->
<svg version="1.1" id="Layer_1" xmlns="http://www.w3.org/2000/svg" xmlns:xlink="http://www.w3.org/1999/xlink" x="0px" y="0px"
	 viewBox="0 0 1137.63 417.01" style="enable-background:new 0 0 1137.63 417.01;" xml:space="preserve">
<style type="text/css">
	.st0{fill:#FFFFFF;stroke:#893C97;stroke-width:5.8546;stroke-miterlimit:10;}
	.st1{fill:#C0BFBF;}
	.st2{fill:#010101;}
	.st3{display:none;fill:#6FBE46;stroke:#6FBE46;stroke-width:0.851;stroke-miterlimit:10;}
	.st4{display:none;fill:#6FBE46;stroke:#6FBE46;stroke-width:0.8474;stroke-miterlimit:10;}
	.st5{fill:#FFFFFF;}
	.st6{fill:#010101;stroke:#010101;stroke-width:0.2893;stroke-miterlimit:10;}
	.st7{fill:none;stroke:#893C97;stroke-width:5.8546;stroke-miterlimit:10;}
	.st8{fill:#FEE800;}
	.st9{font-family:'Vogue-Regular';}
	.st10{font-size:96.2785px;}
	.st11{font-family:'BradleyHandITCTT-Bold';}
	.st12{font-size:78.2575px;}
</style>
<g>
	<circle class="st0" cx="165.9" cy="216.56" r="135.77"/>
	<g>
		<g>
			<g>
				<g>
					<path class="st1" d="M147.06,50.8c-8.48,1.82-2.65-2.97-2.65-2.97c12.43-9.86,23.05,12.48,2.56,19.48s-22.56-12.38-22.56-12.38
						s-1.68-14.96,15.54-19.54s35.87,27.49,10.41,62.22s-25.52,42.96-25.52,42.96c-8.4,50.68,28.9,58.78,47.68,57.73
						s18.43,1.61,26.16,7.04s17.42,6.63,17.42,6.63c43.45,8.73,35.83,48.3,35.83,48.3s17.67,30.62,27.72,30.52
						c0,0-45.43,60.36-130.34,57.92c1.29-34.82-11.08-44.25-11.08-44.25c-2.76-0.54-9.01-7.93-11.34-25.93
						c-2.33-18-6.98-20.31-10.79-24.04s-7.59-4.96-7.91-8.61s3.09-4.53,3.09-4.53s-13.97-7.12-13.53-17.61
						c0.45-10.49-7.97-18.29-7.97-18.29c-6.67-23.44-1.19-63.01,29.54-98s22.32-38.83,22.32-38.83"/>
				</g>
				<g>
					<g>
						<g>
							<path class="st2" d="M107.49,171.53c-6.85,1.32-15.88,2.83-20.59,8.52c-1.19,1.44,0.87,3.52,2.07,2.07
								c4.33-5.22,12.99-6.55,19.3-7.76C110.11,174,109.33,171.18,107.49,171.53L107.49,171.53z"/>
						</g>
					</g>
					<g>
						<g>
							<g>
								<path class="st2" d="M107.6,161.47c-7.01,0.32-13.53,2.55-19.2,6.69c-1.51,1.1-0.05,3.64,1.48,2.53
									c5.27-3.84,11.2-5.99,17.73-6.29C109.48,164.31,109.49,161.38,107.6,161.47L107.6,161.47z"/>
							</g>
						</g>
						<g>
							<g>
								<path class="st2" d="M109.14,152.43c-6.87,0.12-13.3,2.21-18.88,6.24c-1.51,1.09-0.05,3.63,1.48,2.53
									c5.18-3.74,11-5.72,17.4-5.84C111.02,155.32,111.03,152.39,109.14,152.43L109.14,152.43z"/>
							</g>
						</g>
						<g>
							<g>
								<path class="st2" d="M110.67,143.14c-6.48,0.08-12.49,2.17-17.63,6.13c-1.47,1.13-0.02,3.68,1.48,2.53
									c4.75-3.65,10.14-5.65,16.15-5.73C112.55,146.04,112.55,143.11,110.67,143.14L110.67,143.14z"/>
							</g>
						</g>
						<g>
							<g>
								<path class="st2" d="M113.35,134.1c-6.29,0.04-11.94,2.28-16.77,6.26c-1.45,1.2,0.63,3.26,2.07,2.07
									c4.23-3.48,9.21-5.37,14.7-5.4C115.23,137.01,115.23,134.09,113.35,134.1L113.35,134.1z"/>
							</g>
						</g>
						<g>
							<g>
								<path class="st2" d="M115.79,125.81c-5.72-0.02-10.78,2.25-14.95,6.1c-1.39,1.28,0.69,3.35,2.07,2.07
									c3.61-3.34,7.92-5.26,12.88-5.24C117.68,128.74,117.68,125.82,115.79,125.81L115.79,125.81z"/>
							</g>
						</g>
						<g>
							<g>
								<path class="st2" d="M119.55,118.03c-5.1-0.7-9.57,1.13-13.35,4.52c-1.41,1.26,0.67,3.33,2.07,2.07
									c2.91-2.61,6.52-4.32,10.5-3.77C120.61,121.11,121.41,118.29,119.55,118.03L119.55,118.03z"/>
							</g>
						</g>
						<g>
							<g>
								<path class="st2" d="M122.25,111c-4.23-1.02-7.98,1.01-10.88,3.98c-1.32,1.35,0.75,3.42,2.07,2.07
									c2.14-2.19,4.85-4,8.03-3.23C123.3,114.27,124.09,111.45,122.25,111L122.25,111z"/>
							</g>
						</g>
						<g>
							<g>
								<path class="st2" d="M127.59,105.7c-3.35-1.97-7.06-0.49-9.94,1.64c-1.5,1.11-0.04,3.65,1.48,2.53
									c1.96-1.45,4.59-3.04,6.98-1.64C127.74,109.18,129.22,106.65,127.59,105.7L127.59,105.7z"/>
							</g>
						</g>
					</g>
				</g>
				<g>
					<g>
						<path class="st2" d="M146.49,48.71c-0.98,0.18-2.37-0.26-1.92,1.08c0.58,1.76-0.1,0.42,0.52,0.39
							c0.23-0.01,0.55-0.63,0.79-0.74c1.74-0.83,3.02-2.04,5.11-1.88c3.47,0.27,5.41,3.76,5.35,6.97
							c-0.2,9.72-15.82,14.94-23.34,10.75c-10.48-5.84-7.08-20.7,2.31-25.77c8.8-4.75,16.84-1.04,21.46,7.36
							c5.79,10.53,4.54,23.63,0.29,34.46c-5.23,13.3-15.51,24.31-23.13,36.3c-3.63,5.71-7.24,11.6-9.79,17.89
							c-4.44,10.94-3.74,25.49-0.04,36.44c4.81,14.21,16.75,23.54,31.1,26.95c5.68,1.35,11.5,1.81,17.32,1.57
							c5.15-0.21,11-0.92,15.99,0.78c2.79,0.95,4.99,2.93,7.31,4.66c8.22,6.15,17.18,6.92,26.56,9.89
							c8.91,2.82,17.1,8.05,22.11,16.1c3.46,5.55,5.28,12,5.69,18.5c0.19,3.01-0.39,6.67-0.32,9.19c0.11,3.86,4.11,8.17,6.19,11.25
							c4.55,6.74,9.54,13.97,16.08,18.93c2.24,1.7,4.66,3.05,7.52,3.18c-0.62-1.09-1.25-2.18-1.87-3.27
							c0.44-0.59-0.74,0.91-1.07,1.31c-1.24,1.49-2.54,2.94-3.86,4.36c-4.56,4.9-9.48,9.47-14.63,13.73
							c-17.16,14.2-37.25,24.95-58.65,31.15c-16.34,4.74-33.26,6.7-50.26,6.29c0.72,0.72,1.45,1.45,2.17,2.17
							c0.44-14.42,0.07-36.92-13.04-46.47c-3.65-2.66-5.47-7.6-6.79-11.74c-2.48-7.83-2.53-16.14-4.98-23.96
							c-1.27-4.05-3.12-7.72-6.07-10.79c-1.32-1.38-2.79-2.71-4.23-3.96c-1.1-0.96-9.69-6.76-4.51-8.35
							c1.7-0.52,2.24-3.07,0.52-3.97c-4.4-2.29-8.99-5.87-11.22-10.38c-1.81-3.65-0.94-7.73-1.9-11.6
							c-0.89-3.63-2.67-7.04-4.89-10.03c-0.78-1.05-2.47-2.91-2.75-3.53c-1.38-3.06-1.57-7.45-1.87-10.72
							c-0.71-7.94-0.25-15.99,1.14-23.84c3.54-20.06,12.71-38.93,25.32-54.84c9.41-11.86,21.74-23.15,27.35-37.58
							c1.02-2.62,2.76-8.48-0.82-10.21c-2.5-1.21-4.71,2.53-2.19,3.75c-0.38-0.19-0.03-0.28-0.04,0.34
							c-0.06,2.88-1.26,5.5-2.58,8.03c-8.61,16.45-23.21,28.79-33.19,44.33c-9.72,15.13-16.5,32.3-18.8,50.18
							c-0.94,7.31-1.15,14.71-0.29,22.04c0.59,4.96,1.06,9.54,4.27,13.37c3.18,3.79,5.42,8.5,5.68,13.49
							c0.2,3.69,0.4,6.72,2.36,9.99c2.78,4.64,7.46,8.49,12.24,10.97c0.17-1.32,0.35-2.64,0.52-3.97c-2.93,0.9-4.86,3.54-4.69,6.62
							c0.29,4.99,5.94,7.74,9.16,10.73c7.69,7.14,8.43,16.09,10.15,26.07c1.28,7.46,3.7,18.61,10.66,23.15
							c0.84,0.55,1.58,0.87,0.8,0.25c0.29,0.23,0.61,0.52,0.84,0.81c1.3,1.66,2.49,3.24,3.48,5.12c5.85,11.03,6.39,24.52,6.02,36.7
							c-0.04,1.19,1.02,2.14,2.17,2.17c46.74,1.12,92.94-17.22,125.35-51.12c2.4-2.51,4.76-5.1,6.86-7.88
							c1.06-1.4-0.41-3.2-1.87-3.27c-3.87-0.18-7.35-4.24-9.78-6.86c-3.53-3.81-6.62-8.02-9.54-12.3c-1.99-2.92-3.63-6.29-5.8-9.06
							c-1.24-1.58,0.15-1.21-0.5,0.41c0.17-0.42,0.13-1.01,0.21-1.45c2.26-12.04-2.08-26.16-10.14-35.14
							c-7.21-8.04-17.57-12.45-28-14.43c-4.42-0.84-10.51-2.65-14.94-5.41c-3.22-2.01-5.94-4.84-9.39-6.47
							c-8.01-3.8-17.55-1.28-26.07-1.81c-7.63-0.48-15.32-2.43-21.95-6.32c-8.15-4.79-13.76-12.44-16.24-21.53
							c-1.65-6.03-1.96-12.35-1.56-18.57c0.19-3.04,0.48-6.12,1.06-9.11c0.08-0.42-0.15,0.68,0.01,0c0.98-4.16,3.17-8.03,5.24-11.73
							c6.85-12.27,15.82-23.04,23.23-34.91c7.14-11.44,11.3-25.28,8.75-38.76c-1.62-8.58-6.54-17.82-15.06-21.2
							c-13.24-5.25-28.95,8.21-26.79,22.02c0.88,5.61,4.26,11.16,9.5,13.59c8.3,3.84,21.03-0.02,26.22-7.41
							c3.86-5.5,3.48-14.18-2.86-17.75c-4.34-2.45-14.07-0.42-14.88,5.5c-0.57,4.23,4.77,3.45,7.28,2.99
							C150.38,52.39,149.22,48.2,146.49,48.71L146.49,48.71z"/>
					</g>
				</g>
				<path class="st3" d="M136.08,16.09c0,0,10.77,6.22,10.08,27.05l-0.32,0.95l2.56-0.92c0,0,0.75-22.67-10.06-27.91L136.08,16.09z"
					/>
				<path class="st4" d="M145.14,70.51c0,0-4.08,9.7-11.09,13.31c-7.01,3.62-10.67,7.59-10.6,8.6s1.38,1.21,1.38,1.21
					s4.14-5.45,8.23-7.15c4.09-1.7,12.5-7.88,14.66-16.74L145.14,70.51z"/>
				<g>
					<path class="st1" d="M184.28,332.62c5.27,7.24,1.89,31.93-3.52,44.88c-5.41,12.96-1.63,21.49-1.63,21.49s2.77,8.47,4.22,1.81
						c1.46-6.66,5.51-5.12,5.51-5.12c7.2,0.97,6.18-5.76,6.18-5.76s-0.79-4.14,3.49-3.35c4.28,0.79,7.93-7.37,7.14-13.11
						c-0.79-5.74,4.58-2.43,4.58-2.43c12.63,5.01,26.09-17.36,27.61-19.96s4.9-5.51,5.7-2.96c0.8,2.54,10.56-0.48,13.57-4.22
						c3.02-3.75,6.57,2.05,12.53-1.08s5.72-31.28-3.27-37.84s-11.64-30.04-15.65-40.54c-4.01-10.5-9.97-3.3-9.97-3.3"/>
				</g>
				<g>
					<g>
						<path class="st2" d="M179.89,331.27c5.51,3.59,5.06,11.86,4.77,17.6c-0.4,7.97-1.89,16.02-4.36,23.61
							c-2.36,7.22-5.28,13.81-4.47,21.61c0.36,3.48,1.01,5.7,2.3,8.16c1.84,3.53,5.21,4.49,6.99,0.33c1.14-2.68,1.05-4.32,3.75-4.73
							c2.67-0.41,4.86,0.14,6.82-2.24c1.06-1.29,1.46-2.89,1.57-4.53c0.16-2.27-0.52-1.91,2.18-2.31c5.65-0.82,8.24-7.7,8.48-12.74
							c0.07-1.49-0.63-3.32,0.4-3.56c0.21-0.05,1.14,0.57,1.36,0.65c2.55,0.86,5.17,1.03,7.79,0.37c5.5-1.38,10.1-5.54,13.79-9.66
							c3.1-3.46,5.6-7.27,8.16-11.13c0.34-0.51,2.04-3.48,2.27-3.49c-0.02,0,1.24,1.35,1.47,1.48c1.95,1.13,4.97,0.36,6.94-0.24
							c2.63-0.8,4.93-2.09,7.16-3.67c1.56-1.1,1.98-1.85,4.01-1.71c1.36,0.09,2.68,0.77,4.09,0.83c4.76,0.21,7.71-2.38,9.11-6.67
							c3.11-9.5,2.04-23.52-3.28-32.07c-1.43-2.3-3.5-3.61-5.26-5.59c-2.59-2.91-4.11-6.81-5.38-10.43
							c-2.64-7.54-4.1-15.41-6.32-23.06c-1.35-4.65-3.69-12.35-9.93-11.44c-3.95,0.58-6.36,4.24-7.74,7.64
							c-1.05,2.59,3.15,3.71,4.18,1.15c0.65-1.62,1.3-2.81,2.48-3.65c3.12-2.2,4.74,1.4,5.75,4.08c2.07,5.49,3.11,11.41,4.6,17.08
							c1.52,5.79,3.17,11.72,6.05,17.01c2.32,4.26,6.58,6.71,8.68,10.98c2.46,4.98,3.17,10.94,3.24,16.43
							c0.05,3.57,0.35,10.36-2.48,13.16c-3.4,3.37-9.03-1.8-13.11,1.49c-2.55,2.05-4.76,3.82-8.09,4.57
							c-1.06,0.24-1.96,0.37-2.67,0.06c-0.68-0.3-0.97-1.22-1.9-1.49c-3.83-1.11-6.55,3.75-8.25,6.4c-2.56,4-5.37,7.85-8.73,11.22
							c-3.87,3.88-9.24,8.16-15.06,6.33c-2.67-0.84-5.76-2.32-7.38,1.1c-1.11,2.33-0.04,5.43-0.61,7.94
							c-0.39,1.71-1.01,3.71-2.29,4.99c-1.71,1.7-3.24,0.75-5.18,1.46c-3.16,1.15-2.67,4.59-2.86,6.03
							c-0.61,4.56-4.98,1.79-7.97,3.56c-1.46,0.86-3,2.86-3.28,4.56c-0.44,2.7-0.15,0.85,0.94,2.62c-0.25-0.41-0.58-0.83-0.74-1.29
							c-0.19-0.55-0.44-1.1-0.65-1.65c-0.13-0.34-0.76-2.39-0.96-3.76c-0.58-3.83-0.14-7.81,0.86-11.53
							c2.06-7.69,5.2-14.74,6.56-22.68c1.7-9.94,4.52-26.33-5.59-32.92C179.74,325.99,177.56,329.75,179.89,331.27L179.89,331.27z"
							/>
					</g>
				</g>
				<g>
					<g>
						<g>
							<path class="st2" d="M102.67,215.93l5.33-1.5l27.63,10.59c0,0,7.09,14.78,12.35,15.2c5.26,0.42,21.63,1.61,15.47,7.66
								s-24.2,28.04-13.61,43s18.01,30.97,18.49,37.9c0.49,6.93,2.96-22.71,11.16-30.78s11.95-10.71,11.95-10.71
								s4.21-9.56,7.68-11.99c3.47-2.43,9.64-6.06,10.35-10.19c0.71-4.13,13.98-2.85,18-10.17c4.01-7.32,24.37-5.79,22.43-15.4
								c-1.94-9.61,3.51,11.99,2.72,18.54c-0.79,6.56-3.14,0.66-3.14,0.66s-18.82,1.72-26.88,7.07c-8.06,5.34-21.5,16.14-22.84,22.5
								c-1.34,6.36,14.49-7.06,16.27-6.63c1.78,0.43-2.5,18.08-15.32,27.75c-12.81,9.68-17.16,23.26-17.16,23.26
								s3.32,6.54,2.69,10.95c-0.64,4.41-36.93,5.08-36.93,5.08s5.02-34.99-11.68-45.02c0,0-10.11-10.49-10.45-23.07
								c-0.33-12.59-5.05-22.26-12.33-27.26c-7.28-5-7.62-8.8-5.27-11.08s-6.88,0.11-11.55-20.25
								C93.39,201.67,102.67,215.93,102.67,215.93z"/>
							<g>
								<path class="st2" d="M103.23,217.94c0.89-0.25,1.78-0.5,2.66-0.75c0.82-0.23,3.39-0.47,1.59-0.73
									c1.13,0.17,2.39,0.92,3.45,1.32c5.1,1.95,10.19,3.91,15.29,5.86c2.09,0.8,4.17,1.6,6.26,2.4c0.53,0.2,1.24,0.62,1.81,0.69
									c1.47,0.2,0.01,0.71-0.38-0.49c1.43,4.41,5.09,9.43,8.28,12.72c3.78,3.88,7.94,3.31,12.96,4.1c1.12,0.18,7.38,0.88,7.52,2.5
									c0.09,1.07-4.34,4.81-5.09,5.73c-7.82,9.52-16.54,23.61-11.77,36.36c1.75,4.67,5.29,8.63,7.89,12.84
									c2.94,4.77,5.67,9.69,8.03,14.78c1.77,3.82,3.55,7.9,4.32,12.07c0.24,1.33,0.01,3.54,1.47,4.28c0.9,0.46,1.78,0.3,2.53-0.33
									c1.53-1.27,1.6-5.09,1.95-6.83c1-4.88,2.07-9.76,3.62-14.5c1.94-5.96,4.55-9.81,9.11-14.09c2.51-2.36,6.01-4.49,8.21-7.12
									c2.86-3.42,3.54-8.3,7.02-11.45c2.08-1.89,4.73-3.15,6.87-4.99c1.1-0.95,2.19-1.97,3.04-3.16c0.71-1,0.94-2.62,1.64-3.49
									c1.21-1.5,4.03-1.78,5.79-2.29c2.57-0.74,5.24-1.52,7.54-2.94c1.95-1.2,3.04-2.74,4.46-4.45c1.76-2.12,3.88-3.11,6.47-4.04
									c4.5-1.61,10.15-2.4,13.8-5.74c1.35-1.23,2.24-2.72,2.49-4.53c0.21-1.53-0.62-3.26-0.45-4.57c-1.3,0.35-2.6,0.7-3.89,1.05
									c-0.08-0.14,0.6,2.63,0.78,3.46c0.47,2.15,0.88,4.31,1.25,6.48c0.39,2.35,0.76,4.73,0.86,7.11c0.03,0.59-0.36,3.56-0.22,3.8
									c1.6,0.58,2.06,0.45,1.38-0.39c-0.17-0.49-0.25-0.64-0.23-0.44c-0.33-0.79-1.04-1.63-2.01-1.53
									c-6.07,0.57-12.21,1.6-18.08,3.26c-8.12,2.3-14.58,7.06-20.97,12.44c-3.99,3.35-13.68,10.63-12.81,16.92
									c0.74,5.4,7.32,1.48,9.79-0.03c2.26-1.38,5.5-2.91,7.4-4.77c-0.04,0.04,1-0.51,1.01-0.58c0.17-0.81-1.01-1.32-1.5-0.93
									c-0.35,0.27-0.75,3.78-0.89,4.24c-2.97,9.76-9.23,16.3-16.73,22.8c-6.15,5.32-11.09,12.26-14.24,19.76
									c-0.67,1.58-1.06,2.34-0.71,3.99c0.42,1.96,3.86,7.32,2.44,9.2c-1.13,1.49-6.4,1.68-8.06,1.91c-4,0.56-8.04,0.87-12.06,1.13
									c-4.91,0.32-9.83,0.54-14.76,0.64c0.67,0.88,1.34,1.76,2.01,2.64c1.09-7.73,1.1-15.74,0.03-23.46
									c-0.8-5.76-2.29-11.66-5.44-16.63c-2.44-3.85-6.24-5.97-8.94-9.49c-5.3-6.91-7.11-13.91-7.9-22.43
									c-0.71-7.66-3.1-15.36-8.19-21.27c-2.44-2.83-5.75-4.5-8.31-7.16c-1.14-1.18-2.51-2.68-2.01-4.43
									c0.21-0.73,1.14-1.13,1.34-1.93c0.63-2.5-1.69-3.27-3.32-4.5c-6.21-4.69-8.34-13.86-9.45-21.11
									c-0.01-0.09-0.1-2.16-0.29-2.64c-0.03-0.37-0.03-0.74,0-1.11c0.14-0.69-0.29-0.68-1.29,0.04c0.33,0.49,1.09,0.97,1.51,1.44
									c0.67,0.74,1.26,1.57,1.8,2.4c1.47,2.24,5.09,0.15,3.61-2.11c-1.22-1.85-2.87-4.47-4.96-5.41
									c-3.83-1.73-4.98,2.13-4.82,5.21c0.4,7.6,2.88,16.5,7.48,22.67c1.17,1.57,2.51,2.94,4.09,4.09c0.27,0.19,1.3,1.1,1.6,1.06
									c0.64-0.1,0.92-2.31-0.54-0.76c-4.53,4.79,3.33,11.03,6.48,13.43c8.82,6.72,10.43,16.57,11.38,26.96
									c0.69,7.58,4.21,14.64,8.87,20.56c3.18,4.04,7.37,6.39,9.72,11.24c4.85,10.02,4.89,24.54,3.53,34.24
									c-0.18,1.29,0.52,2.67,2.01,2.64c10.59-0.2,21.63-0.39,32.01-2.61c4.97-1.06,7.69-2.5,6.87-8.07
									c-0.31-2.12-0.98-4.15-1.79-6.13c-0.16-0.38-0.33-0.95-0.54-1.27c-0.88-1.33,0.25-1.08-0.28,0.47
									c0.73-2.1,1.7-4.12,2.76-6.07c2.17-3.98,4.82-7.68,7.95-10.96c3.8-4,8.49-6.93,12.05-11.18c4.69-5.59,8.98-13.04,9.99-20.4
									c0.54-3.92-1.37-6-5.1-4.03c-2.5,1.32-4.79,3.11-7.18,4.62c-1.08,0.68-2.66,1.24-3.58,2.08c-0.37,0.33-1.26,0.29-1.54,0.63
									c0.62,1.27,0.97,1.35,1.05,0.23c0.2-0.54,0.45-1.05,0.75-1.54c2.44-4.61,7.27-8.46,11.21-11.73
									c4.01-3.33,8.38-6.98,13.21-9.07c6.91-2.98,14.87-4.25,22.33-4.95c-0.67-0.51-1.34-1.02-2.01-1.53
									c0.74,1.78,2.05,4.41,4.42,3.89c3.12-0.68,2.97-5.53,2.87-7.97c-0.17-4.06-0.94-8.14-1.73-12.12
									c-0.41-2.1-0.57-5.16-1.73-7.04c-1.18-1.91-3.64-0.9-3.89,1.05c-0.13,0.98,0.46,2.01,0.49,2.98
									c0.08,2.73-1.93,3.79-4.2,4.78c-4.23,1.85-8.92,2.56-13.05,4.69c-4.43,2.28-6.06,6.82-10.87,8.65
									c-3.4,1.29-8.8,1.5-11.32,4.45c-1.53,1.79-1.79,4.03-3.6,5.81c-2.25,2.23-5.16,3.55-7.54,5.61
									c-3.55,3.08-5.34,7.68-7.49,11.73c-0.49,0.92,0.9-0.79,0.33-0.17c-0.29,0.32-0.73,0.56-1.08,0.83
									c-1.66,1.28-3.23,2.69-4.78,4.1c-4.05,3.66-7.98,7.08-10.32,12.08c-2.28,4.86-3.67,10.11-4.87,15.32
									c-0.55,2.41-1.03,4.83-1.53,7.25c-0.15,0.74-0.47,1.61-0.49,2.36c-0.02,0.82-0.84,1.45,0,0.76
									c0.84-0.11,1.69-0.22,2.53-0.33c2.17,1.11,0.37,1.59,0.77,0.39c0.11-0.33-0.12-0.99-0.17-1.34
									c-0.23-1.43-0.59-2.84-1.02-4.22c-1.17-3.8-2.8-7.48-4.51-11.06c-2.08-4.32-4.4-8.53-6.9-12.63
									c-2.7-4.43-6.75-8.75-8.34-13.73c-2.53-7.93,1.36-16.57,5.45-23.25c3.13-5.12,7.68-9.01,10.96-13.88
									c2.56-3.8-0.41-6.68-4.03-7.97c-4.76-1.69-12.21-0.38-16.01-3.64c-4.05-3.47-5.06-8.87-8.36-12.68
									c-1.79-2.07-5.96-2.8-8.43-3.74c-5.66-2.17-11.32-4.34-16.98-6.51c-4.04-1.55-5.61-1.05-9.93,0.16
									C99.53,214.64,100.63,218.67,103.23,217.94z"/>
							</g>
						</g>
					</g>
				</g>
				<g>
					<g>
						<path class="st2" d="M102.47,209.38c0,0-39.43-17.63-51.77-33.21c0,0-1.56-2-3.2-1.16s-0.95,2.59-0.29,4.08
							c0.66,1.48,27.24,42.15,60.8,45C108.01,224.07,116.88,220.09,102.47,209.38z"/>
						<g>
							<path class="st2" d="M103.43,207.73c-10.06-4.51-19.89-9.7-29.29-15.44c-6.89-4.21-13.86-8.76-19.52-14.58
								c-1.57-1.61-3.03-4.24-5.42-4.72c-2.77-0.56-4.79,1.7-4.54,4.31c0.27,2.9,2.83,5.76,4.46,7.98
								c3.37,4.59,7.02,8.99,10.91,13.14c10.61,11.32,23.64,21.74,38.84,25.93c4.16,1.15,10.01,3.43,12.81-1.09
								C115.45,217.14,107.53,210.89,103.43,207.73c-1.94-1.5-3.85,1.81-1.93,3.3c1.64,1.26,11.21,8.91,5.83,11.25
								c-1.05,0.46-5.4-1.07-6.84-1.45c-3.48-0.91-6.85-2.19-10.09-3.76c-11.5-5.57-21.34-14.22-29.81-23.68
								c-1.07-1.2-13.19-14.81-11.75-16.07c-0.23,0.2,10.3,9.39,11.5,10.29c5.15,3.87,10.62,7.31,16.19,10.54
								c8.09,4.69,16.44,9.05,24.98,12.88C103.73,212.02,105.67,208.73,103.43,207.73z"/>
						</g>
					</g>
					<path class="st2" d="M102.47,209.38c0,0-39.43-17.63-51.77-33.21c0,0-1.56-2-3.2-1.16s-0.95,2.59-0.29,4.08
						c0.66,1.48,27.24,42.15,60.8,45C108.01,224.07,116.88,220.09,102.47,209.38z"/>
				</g>
				<g>
					<g>
						<path class="st2" d="M129.66,209.35c0,0-39.43-17.63-51.77-33.21c0,0-1.56-2-3.2-1.16c-1.64,0.84-0.95,2.6-0.29,4.08
							c0.66,1.48,27.24,42.15,60.8,45C135.2,224.05,144.07,220.06,129.66,209.35z"/>
						<g>
							<path class="st2" d="M130.62,207.7c-10.06-4.51-19.89-9.7-29.29-15.44c-6.89-4.21-13.86-8.76-19.52-14.58
								c-1.57-1.61-3.03-4.24-5.42-4.72c-2.77-0.56-4.79,1.7-4.54,4.31c0.27,2.9,2.83,5.76,4.46,7.98
								c3.37,4.59,7.02,8.99,10.91,13.14c10.61,11.32,23.64,21.74,38.84,25.93c4.16,1.15,10.01,3.43,12.81-1.09
								C142.65,217.11,134.72,210.86,130.62,207.7c-1.94-1.5-3.85,1.81-1.93,3.3c1.64,1.26,11.21,8.91,5.83,11.25
								c-1.05,0.46-5.4-1.07-6.84-1.45c-3.48-0.91-6.85-2.19-10.09-3.76c-11.5-5.57-21.34-14.22-29.81-23.68
								c-1.07-1.2-13.19-14.81-11.75-16.07c-0.23,0.2,10.3,9.39,11.5,10.29c5.15,3.87,10.62,7.31,16.19,10.54
								c8.09,4.69,16.44,9.05,24.98,12.88C130.92,211.99,132.86,208.71,130.62,207.7z"/>
						</g>
					</g>
					<path class="st5" d="M129.66,209.35c0,0-39.43-17.63-51.77-33.21c0,0-1.56-2-3.2-1.16c-1.64,0.84-0.95,2.6-0.29,4.08
						c0.66,1.48,27.24,42.15,60.8,45C135.2,224.05,144.07,220.06,129.66,209.35z"/>
				</g>
				<path class="st2" d="M243.5,346.01c0,0,1.51,2.74,7.46-1.13c5.95-3.87,10.29-11.8,14.26-8.69c3.97,3.12,3.4-11.14,3.4-11.14
					s-0.66-11.61-8.59-17.09c-7.93-5.48-8.59-12.75-8.59-12.75s-1.42-32.1-5.66-31.53c0,0-2.08-0.47-3.9,1.29s-1.76,2.01-2.64,2.01
					s2.93-7.62,2.93-7.62l8.65,3.49l2.3,10.48l8.5,26.66l10.54,17.5l1.16,17.91l-4,6.89l-9.41,1.51l-12.02,4.75l-5.76-0.54
					L243.5,346.01z"/>
				<path class="st2" d="M263.56,307.14l5.65,8.63C269.2,315.77,272.34,306.52,263.56,307.14z"/>
				<g>
					<path class="st2" d="M180.63,329.07c0,0,10.32-0.75,11.99,17.04s-6.05,33.56-5.23,35.23c0.81,1.67,5.66,2.61,7.4-10.13
						c1.74-12.74,11.1-16.45,12.24-12.29s21.39,1.05,33.01-12.34c0,0-10.13,26.83-29.78,24.45c0,0-4.04-3.65-4.58,2.43
						s-0.69,11-8.34,14.37c0,0-2.42-1.22-2.29,3.74s-8.64,4.28-8.64,4.28l-4.38,5.3c0,0-8.06-10.22-1.83-22.24
						C186.42,366.9,192.17,339.3,180.63,329.07z"/>
				</g>
			</g>
			<path class="st2" d="M189.76,217.09c0,0-3.03,3.9-7.87,2.03c-3.68-1.42-2.42-6.65-2.42-6.65S189.11,215.88,189.76,217.09z"/>
			<circle class="st5" cx="184.1" cy="215.19" r="0.93"/>
			<path class="st5" d="M185.02,218.46c0,0,3.58-0.25,3.67-1.58c0.1-1.33-2.48,0.82-2.48,0.82s-0.7,0.44-1.08,0.37
				S184.68,218.49,185.02,218.46z"/>
			<path class="st2" d="M190.3,216.23c0,0-4.2-4.47-10.82-5.16c0,0-1.23-0.06-1.4,0.5c-0.17,0.56-0.1,0.96,2.3,1.44
				c2.4,0.48,8.21,3.61,8.69,4.56c0.49,0.95,1.34,0.52,1.34,0.52S191.8,217.54,190.3,216.23z"/>
		</g>
	</g>
	<path class="st2" d="M250.75,264.44c0,0,6.04,30.58,10.85,35.56c4.8,4.98,5.04,7.99,8.43,3.97c3.4-4.03,9.63-11.58,9.63-11.58
		s-11.73-5.73-14.45-11.74C262.47,274.63,250.75,264.44,250.75,264.44z"/>
	<polygon class="st6" points="172.39,345.81 172.39,350.99 189.09,350.16 190.03,343.93 	"/>
	<path class="st2" d="M228.85,355.48c0,0,3.12-2.16,7.59-6.77s5.94-5.05,7.78-4.2c1.84,0.85,4.97,2.17,10.15-2.36
		c5.18-4.53-0.52,5.86-0.52,5.86l-0.06,0.77c0,0-5.62,3.49-9.21,2.94c-3.59-0.56-5.71,1.82-6.65,3
		C237,355.9,228.85,355.48,228.85,355.48z"/>
	<path class="st7" d="M280.86,288.83c0,0-45.93,70.55-134.11,62.16"/>
	<g>
		<g>
			<g>
				<g>
					<g>
						<g>
							<g>
								<path class="st1" d="M184.28,332.62c5.27,7.24,1.89,31.93-3.52,44.88s-1.63,21.49-1.63,21.49s2.77,8.47,4.22,1.81
									s5.51-5.12,5.51-5.12c7.2,0.97,6.18-5.76,6.18-5.76s-0.79-4.14,3.49-3.35c4.28,0.79,7.93-7.37,7.14-13.11
									c-0.79-5.74,4.58-2.43,4.58-2.43c12.63,5.01,26.09-17.36,27.61-19.96s4.9-5.51,5.7-2.96c0.8,2.54,10.56-0.48,13.57-4.22
									c3.02-3.75,6.57,2.05,12.53-1.08s5.72-31.28-3.27-37.84s-11.64-30.04-15.65-40.54c-4.01-10.5-9.97-3.3-9.97-3.3"/>
							</g>
							<g>
								<g>
									<path class="st2" d="M179.9,331.27c5.51,3.59,5.06,11.86,4.77,17.6c-0.4,7.97-1.89,16.02-4.36,23.61
										c-2.36,7.22-5.28,13.81-4.47,21.61c0.36,3.48,1.01,5.7,2.3,8.16c1.84,3.53,5.21,4.49,6.99,0.33
										c1.14-2.68,1.05-4.32,3.75-4.73c2.67-0.41,4.86,0.14,6.82-2.24c1.06-1.29,1.46-2.89,1.57-4.53
										c0.16-2.27-0.52-1.91,2.18-2.31c5.65-0.82,8.24-7.7,8.48-12.74c0.07-1.49-0.63-3.32,0.4-3.56
										c0.21-0.05,1.14,0.57,1.36,0.65c2.55,0.86,5.17,1.03,7.79,0.37c5.5-1.38,10.1-5.54,13.79-9.66
										c3.1-3.46,5.6-7.27,8.16-11.13c0.34-0.51,2.04-3.48,2.27-3.49c-0.02,0,1.24,1.35,1.47,1.48c1.95,1.13,4.97,0.36,6.94-0.24
										c2.63-0.8,4.93-2.09,7.16-3.67c1.56-1.1,1.98-1.85,4.01-1.71c1.36,0.09,2.68,0.77,4.09,0.83c4.76,0.21,7.71-2.38,9.11-6.67
										c3.11-9.5,2.04-23.52-3.28-32.07c-1.43-2.3-3.5-3.61-5.26-5.59c-2.59-2.91-4.11-6.81-5.38-10.43
										c-2.64-7.54-4.1-15.41-6.32-23.06c-1.35-4.65-3.69-12.35-9.93-11.44c-3.95,0.58-6.36,4.24-7.74,7.64
										c-1.05,2.59,3.15,3.71,4.18,1.15c0.65-1.62,1.3-2.81,2.48-3.65c3.12-2.2,4.74,1.4,5.75,4.08
										c2.07,5.49,3.11,11.41,4.6,17.08c1.52,5.79,3.17,11.72,6.05,17.01c2.32,4.26,6.58,6.71,8.68,10.98
										c2.46,4.98,3.17,10.94,3.24,16.43c0.05,3.57,0.35,10.36-2.48,13.16c-3.4,3.37-9.03-1.8-13.11,1.49
										c-2.55,2.05-4.76,3.82-8.09,4.57c-1.06,0.24-1.96,0.37-2.67,0.06c-0.68-0.3-0.97-1.22-1.9-1.49
										c-3.83-1.11-6.55,3.75-8.25,6.4c-2.56,4-5.37,7.85-8.73,11.22c-3.87,3.88-9.24,8.16-15.06,6.33
										c-2.67-0.84-5.76-2.32-7.38,1.1c-1.11,2.33-0.04,5.43-0.61,7.94c-0.39,1.71-1.01,3.71-2.29,4.99
										c-1.71,1.7-3.24,0.75-5.18,1.46c-3.16,1.15-2.67,4.59-2.86,6.03c-0.61,4.56-4.98,1.79-7.97,3.56
										c-1.46,0.86-3,2.86-3.28,4.56c-0.44,2.7-0.15,0.85,0.94,2.62c-0.25-0.41-0.58-0.83-0.74-1.29
										c-0.19-0.55-0.44-1.1-0.65-1.65c-0.13-0.34-0.76-2.39-0.96-3.76c-0.58-3.83-0.14-7.81,0.86-11.53
										c2.06-7.69,5.2-14.74,6.56-22.68c1.7-9.94,4.52-26.33-5.59-32.92C179.74,325.99,177.57,329.75,179.9,331.27L179.9,331.27z"
										/>
								</g>
							</g>
							<path class="st2" d="M243.5,346.01c0,0,1.51,2.74,7.46-1.13c5.95-3.87,10.29-11.8,14.26-8.69c3.97,3.12,3.4-11.14,3.4-11.14
								s-0.66-11.61-8.59-17.09c-7.93-5.48-8.59-12.75-8.59-12.75s-1.42-32.1-5.66-31.53c0,0-2.08-0.47-3.9,1.29
								s-1.76,2.01-2.64,2.01s2.93-7.62,2.93-7.62l8.65,3.49l2.3,10.48l8.5,26.66l10.54,17.5l1.16,17.91l-4,6.89l-9.41,1.51
								l-12.02,4.75l-5.76-0.54L243.5,346.01z"/>
							<path class="st2" d="M263.56,307.14l5.65,8.63C269.21,315.77,272.34,306.52,263.56,307.14z"/>
							<g>
								<path class="st2" d="M180.64,329.07c0,0,10.32-0.75,11.99,17.04c1.67,17.79-6.05,33.56-5.23,35.23
									c0.81,1.67,5.66,2.61,7.4-10.13c1.74-12.74,11.1-16.45,12.24-12.29c1.13,4.16,21.39,1.05,33.01-12.34
									c0,0-10.13,26.83-29.78,24.45c0,0-4.04-3.65-4.58,2.43s-0.69,11-8.34,14.37c0,0-2.42-1.22-2.29,3.74
									c0.13,4.96-8.64,4.28-8.64,4.28l-4.38,5.3c0,0-8.06-10.22-1.83-22.24C186.43,366.9,192.17,339.3,180.64,329.07z"/>
							</g>
						</g>
					</g>
				</g>
			</g>
		</g>
	</g>
	<path class="st8" d="M259.99,195.37c-14.38-12.92-36.51-11.73-49.43,2.65l-3.34,3.72l-9.67-4.2l-2.23,2.48l59.52,53.45l4.45-4.96
		l3.34-3.72C275.56,230.42,274.37,208.29,259.99,195.37z M215.9,209.54l5.69-3.85l2.48,2.23l-3.22,6.07L215.9,209.54z
		 M225.82,218.45l5.69-3.85l2.48,2.23l-3.21,6.07L225.82,218.45z M235.74,227.36l5.69-3.85l2.48,2.23l-3.21,6.07L235.74,227.36z
		 M251.08,205.29c-4.45-4-10.1-5.81-15.64-5.51l-0.36-6.66c7.24-0.39,14.63,1.98,20.45,7.21c5.82,5.23,8.97,12.32,9.36,19.56
		l-6.66,0.36C257.94,214.72,255.53,209.29,251.08,205.29z M245.66,236.27l5.69-3.85l2.48,2.23l-3.22,6.07L245.66,236.27z"/>
	<path class="st8" d="M143.83,50.61c0.12-0.2,0.12-0.35,0.01-1.28c-0.09-0.75-0.23-2.4-0.28-3.3c-0.01-0.22-0.05-0.6-0.09-0.84
		c-0.03-0.24-0.11-0.86-0.18-1.39c-0.06-0.52-0.13-0.98-0.15-1.02c-0.04-0.08-0.22-1.6-0.24-2.08c-0.04-0.86-0.08-1.3-0.19-2.07
		c-0.07-0.45-0.11-0.97-0.1-1.15c0.01-0.18-0.08-0.82-0.2-1.42c-0.12-0.6-0.23-1.23-0.23-1.4c-0.01-0.17-0.11-0.7-0.23-1.17
		c-0.12-0.47-0.28-1.19-0.35-1.6c-0.17-0.99-0.44-2.07-0.53-2.13c-0.04-0.02-0.13-0.03-0.19-0.02c-0.06,0.02-0.16,0.12-0.22,0.22
		c-0.13,0.22-0.12,1.11,0.03,1.62c0.05,0.18,0.1,0.48,0.11,0.66c0.01,0.18,0.06,0.5,0.11,0.7c0.15,0.64,0.27,1.33,0.36,2.05
		c0.05,0.38,0.14,1.06,0.21,1.51c0.07,0.45,0.14,1.03,0.16,1.3c0.02,0.27,0.06,0.69,0.1,0.93c0.04,0.24,0.08,0.67,0.11,0.97
		c0.07,0.9,0.1,1.35,0.12,1.64c0.03,0.4,0.31,2.55,0.4,3.01c0.1,0.55,0.25,1.97,0.3,2.94c0.01,0.16,0.07,0.78,0.14,1.4
		c0.12,1.05,0.36,1.9,0.57,2.02C143.52,50.79,143.74,50.75,143.83,50.61z"/>
	<path class="st8" d="M156.74,24.69c-0.02-0.08-0.05-0.46-0.07-0.85c-0.1-1.61-0.18-2.15-0.42-3.08c-0.14-0.54-0.34-1.17-0.45-1.39
		c-0.28-0.57-0.82-1.41-0.94-1.48c-0.06-0.03-0.24-0.22-0.41-0.41c-0.28-0.31-0.43-0.42-1.82-1.25c-1.31-0.77-1.58-0.91-1.94-1
		c-0.23-0.06-0.58-0.17-0.79-0.26c-0.21-0.09-0.44-0.18-0.51-0.2c-0.07-0.02-0.31-0.1-0.53-0.17c-0.22-0.07-0.68-0.2-1.03-0.27
		c-0.49-0.1-0.74-0.2-1.13-0.42c-0.56-0.32-1.02-0.78-1.11-1.12c-0.07-0.26-0.48-0.93-0.75-1.23c-0.33-0.36-0.55-0.47-0.88-0.41
		c-0.16,0.03-0.44,0.06-0.62,0.07c-0.18,0.01-0.67,0.1-1.08,0.21c-0.41,0.1-0.79,0.17-0.82,0.15c-0.03-0.02-0.13,0.01-0.21,0.07
		c-0.08,0.06-0.26,0.11-0.4,0.12c-0.14,0.01-0.49,0.03-0.79,0.05c-0.3,0.02-0.69,0.05-0.86,0.06c-0.18,0.01-0.65,0.1-1.04,0.2
		l-0.72,0.18l-0.26,0.43c-0.14,0.24-0.38,0.58-0.53,0.75c-0.15,0.17-0.32,0.37-0.38,0.43c-0.06,0.07-0.18,0.13-0.28,0.15
		c-0.1,0.02-0.29,0.06-0.43,0.09c-0.14,0.03-0.39,0.02-0.56-0.02c-0.17-0.04-0.37-0.07-0.45-0.05c-0.17,0.03-0.79-0.17-1.06-0.34
		c-0.23-0.14-0.97-0.94-1.09-1.16c-0.14-0.27-0.54-0.62-0.87-0.77c-0.46-0.21-0.94-0.36-1.17-0.37c-0.11-0.01-0.35-0.02-0.54-0.03
		s-0.47,0.01-0.63,0.06c-0.33,0.09-1,0.19-1.12,0.18c-0.17-0.02-0.7,0.19-0.84,0.34c-0.08,0.08-0.19,0.17-0.24,0.19
		c-0.05,0.02-0.27,0.2-0.48,0.39c-0.3,0.28-0.42,0.42-0.51,0.67c-0.07,0.17-0.16,0.34-0.19,0.37c-0.13,0.11-0.51,1.35-0.6,2
		c-0.24,1.63-0.21,2.59,0.14,4.11c0.38,1.64,1,3,1.64,3.62c0.63,0.61,1.38,0.93,2.03,0.87c0.19-0.02,0.38-0.02,0.41,0
		c0.03,0.02,0.13,0,0.23-0.05c0.09-0.05,0.31-0.08,0.48-0.08c0.35,0.01,0.7-0.11,0.79-0.26c0.03-0.06,0.14-0.1,0.23-0.1
		c0.25,0.01,0.74-0.12,0.95-0.25c0.14-0.09,0.27-0.27,0.55-0.81c0.35-0.67,0.39-0.71,0.7-0.91c0.43-0.28,0.95-0.31,1.63-0.1
		c0.7,0.21,1.89,1.17,2.32,1.87c0.07,0.11,0.15,0.22,0.19,0.24c0.07,0.04,0.46,0.77,0.75,1.39c0.08,0.17,0.23,0.39,0.34,0.51
		c0.24,0.24,0.31,0.5,0.25,0.95c-0.06,0.46,0.01,1.44,0.29,3.95c0.06,0.53,0.12,1.17,0.14,1.42c0.02,0.25,0.06,0.73,0.09,1.06
		c0.03,0.33,0.11,1.16,0.18,1.84c0.07,0.68,0.15,1.49,0.19,1.8c0.04,0.31,0.08,0.76,0.1,1c0.01,0.25,0.07,0.88,0.14,1.41
		c0.06,0.53,0.12,1.04,0.12,1.14c0.01,0.1,0.07,0.69,0.14,1.31c0.13,1.15,0.2,1.85,0.34,3.38c0.04,0.48,0.1,1.07,0.14,1.31
		c0.11,0.81,0.16,1.3,0.19,1.74c0.02,0.24,0.07,0.7,0.11,1.04c0.04,0.3,0.09,0.71,0.14,1.21c0.15,0.33,0.26,0.68,0.34,1.03
		c0.26,0.13,0.52,0.27,0.74,0.44c-0.02-0.3-0.06-0.65-0.09-0.89c-0.04-0.31-0.09-0.87-0.11-1.25c-0.02-0.38-0.06-0.81-0.09-0.95
		c-0.03-0.14-0.05-0.31-0.05-0.39c0.01-0.13-0.15-1.73-0.21-2.22c-0.04-0.31-0.17-1.72-0.22-2.35c-0.02-0.26-0.08-0.8-0.13-1.19
		c-0.1-0.75-0.3-2.72-0.35-3.43c-0.02-0.23-0.06-0.7-0.1-1.03c-0.04-0.34-0.09-0.75-0.1-0.91c-0.01-0.16-0.04-0.46-0.07-0.66
		c-0.02-0.2-0.09-0.75-0.14-1.24c-0.05-0.49-0.12-1.16-0.16-1.51c-0.09-0.78-0.11-0.97-0.15-1.57c-0.02-0.27-0.05-0.66-0.07-0.88
		c-0.02-0.22-0.07-0.63-0.1-0.91c-0.03-0.28-0.08-0.71-0.11-0.96c-0.03-0.24-0.07-0.61-0.08-0.81c-0.01-0.2-0.04-0.56-0.07-0.8
		c-0.06-0.54-0.02-0.62,0.22-0.41c0.16,0.14,0.22,0.15,0.62,0.05c0.47-0.11,0.48-0.11,0.92,0.35c0.23,0.24,0.59,0.94,0.72,1.4
		c0.04,0.15,0.16,0.48,0.26,0.74c0.24,0.6,0.95,3.7,1.12,4.88c0.07,0.51,0.17,1.18,0.21,1.5c0.05,0.32,0.1,0.91,0.13,1.31
		s0.07,0.91,0.1,1.13c0.06,0.39,0.13,1.39,0.1,1.45c-0.01,0.02,0.02,0.26,0.06,0.53c0.12,0.76,0.25,2.19,0.26,2.69
		c0,0.24,0.02,0.54,0.04,0.66c0.02,0.12,0.05,0.49,0.07,0.81c0.03,0.32,0.06,0.6,0.08,0.61c0.02,0.01,0.07,0.35,0.12,0.75
		c0.04,0.4,0.1,0.89,0.12,1.08c0.02,0.19,0.04,0.52,0.03,0.74c0,0.22,0.02,0.53,0.06,0.71c0.04,0.17,0.09,0.58,0.11,0.89
		c0.02,0.32,0.07,0.76,0.11,0.98c0.04,0.22,0.05,0.43,0.03,0.46c-0.02,0.03-0.01,0.24,0.02,0.48c0.02,0.18,0.03,0.34,0.05,0.51
		c0.19-0.02,0.38-0.03,0.58-0.03c0.09,0,0.17,0.01,0.26,0.02c0.17-0.05,0.35-0.09,0.54-0.12c0.18-0.08,0.37-0.16,0.57-0.22
		c0.21-0.17,0.44-0.33,0.69-0.46c0.09-0.19,0.17-0.39,0.28-0.57c0-0.21,0.04-0.42,0.06-0.63c-0.02-0.28-0.02-0.56,0-0.84
		c-0.02-0.19-0.04-0.37-0.05-0.54c-0.07-0.63-0.13-1.27-0.14-1.42c-0.11-1.67-0.16-2.21-0.35-4.45c-0.03-0.4-0.08-0.91-0.09-1.14
		c-0.02-0.23-0.08-0.87-0.13-1.44c-0.05-0.56-0.12-1.4-0.16-1.85c-0.04-0.46-0.11-1.26-0.17-1.78c-0.06-0.52-0.12-1.21-0.14-1.52
		c-0.03-0.56-0.1-1.38-0.21-2.52c-0.03-0.31-0.09-1.14-0.14-1.84c-0.04-0.7-0.1-1.43-0.13-1.62c-0.04-0.28-0.1-1.37-0.12-2.23
		c0-0.1,0.04-0.22,0.09-0.27c0.07-0.06,0.07-0.12,0-0.2c-0.05-0.06-0.08-0.13-0.06-0.17c0.02-0.03-0.01-0.19-0.05-0.34
		c-0.08-0.26-0.07-0.33,0.14-0.75c0.19-0.4,0.25-0.48,0.39-0.51c0.1-0.03,0.26-0.17,0.42-0.38c0.25-0.33,0.26-0.36,0.29-1
		c0.02-0.37,0.08-0.97,0.14-1.35c0.1-0.66,0.12-0.72,0.48-1.34c0.58-0.99,1.11-1.41,1.81-1.44c0.84-0.03,1.2,0.08,1.96,0.61
		c0.32,0.23,0.64,0.48,0.7,0.56c0.06,0.08,0.25,0.27,0.42,0.42c0.3,0.27,1.17,1.53,1.43,2.07c0.38,0.81,0.52,1.19,0.58,1.59
		c0.04,0.25,0.13,0.7,0.2,1.02c0.07,0.31,0.15,0.89,0.18,1.29c0.05,0.86,0.1,1.03,0.36,1.18c0.18,0.11,0.2,0.1,0.39-0.13
		c0.29-0.35,0.34-0.76,0.28-2.08c-0.01-0.16,0.02-0.38,0.07-0.51C156.73,24.93,156.75,24.77,156.74,24.69z M145.54,25.53
		c-0.07,0.12-0.14,0.22-0.15,0.22c-0.01,0-0.17-0.08-0.36-0.16c-0.36-0.17-1.46-0.35-1.76-0.29c-0.1,0.02-0.29,0.03-0.42,0.03
		c-0.14,0-0.49,0.04-0.79,0.09c-0.3,0.05-0.56,0.08-0.59,0.07c-0.03-0.02-0.25,0.05-0.49,0.16c-0.35,0.15-0.51,0.26-0.73,0.52
		c-0.19,0.22-0.28,0.31-0.38,0.27c-0.05-0.03-0.11-0.1-0.18-0.22c-0.13-0.21-0.11-0.43,0.06-0.53c0.06-0.04,0.25-0.23,0.41-0.41
		c0.41-0.47,0.65-0.6,1.47-0.81c0.76-0.2,1.79-0.2,2.36-0.02c0.52,0.17,0.76,0.23,0.99,0.24c0.13,0,0.26,0.04,0.29,0.08
		c0.03,0.04,0.12,0.13,0.2,0.2C145.67,25.17,145.68,25.29,145.54,25.53z"/>
	<path class="st8" d="M150.93,76.06c-0.01-0.15-0.05-0.47-0.08-0.72c-0.03-0.24-0.05-0.51-0.04-0.58s0-0.31-0.02-0.53
		c-0.03-0.22-0.06-0.7-0.08-1.09c-0.02-0.38-0.04-0.72-0.06-0.74c-0.01-0.03-0.03-0.18-0.04-0.34c-0.03-0.36-0.08-0.73-0.24-1.75
		c-0.07-0.44-0.16-1.04-0.19-1.35c-0.01-0.11-0.04-0.27-0.07-0.43c-1.09,0.53-2.22,0.98-3.37,1.35c0.01,0.23,0.02,0.47,0.03,0.72
		c0.01,0.28,0.01,0.59-0.01,0.69c-0.08,0.5-0.06,1.14,0.07,2.34c0.08,0.72,0.16,1.74,0.17,2.27c0.01,0.53,0.05,1.36,0.08,1.84
		c0.06,0.94,0,2.51-0.16,3.75c-0.05,0.42-0.09,0.86-0.07,0.99c0.02,0.27-0.2,1.02-0.49,1.64c-0.24,0.51-0.2,0.68,0.19,0.84
		c0.14,0.06,0.36,0.12,0.48,0.12c0.12,0.01,0.33,0.03,0.46,0.06c0.29,0.05,0.94-0.15,1.31-0.41c0.39-0.27,0.93-1.12,1.17-1.81
		c0.26-0.76,0.29-0.77,0.27-0.09c-0.03,1.01-0.57,2.13-1.26,2.57c-0.5,0.33-1,0.49-1.46,0.48c-0.35,0-0.46-0.04-0.84-0.26
		c-0.47-0.28-0.59-0.43-1.09-1.46c-0.2-0.4-0.37-1.02-0.31-1.13c0.03-0.06-0.02-0.97-0.07-1.32c-0.08-0.56-0.59-4.78-0.68-5.69
		c-0.01-0.14-0.03-0.49-0.03-0.77c-0.01-0.29-0.04-0.62-0.07-0.75c-0.07-0.29-0.26-2.15-0.27-2.65c0-0.21-0.04-0.55-0.07-0.75
		c-0.02-0.1-0.04-0.29-0.07-0.52c-0.31,0.06-0.62,0.12-0.94,0.17c0.05,0.45,0.09,0.87,0.11,1.13c0.1,1.13,0.2,2.05,0.37,3.54
		c0.07,0.62,0.15,1.39,0.17,1.71c0.02,0.32,0.07,0.78,0.11,1.02c0.06,0.41,0.27,2.49,0.36,3.51c0.02,0.24,0.05,0.58,0.07,0.76
		c0.02,0.18,0.01,0.44-0.02,0.56c-0.06,0.28,0.21,1.21,0.47,1.64c0.1,0.17,0.27,0.47,0.37,0.67c0.25,0.51,0.62,0.88,1.21,1.23
		c0.92,0.54,2.04,0.65,2.58,0.25c0.11-0.08,0.22-0.13,0.24-0.11c0.03,0.02,0.21-0.05,0.4-0.14c0.39-0.2,0.86-0.73,1.32-1.5
		c0.44-0.73,0.57-1.36,0.59-2.77c0.01-0.92-0.1-2.63-0.21-3.16C151.16,78.87,150.99,77.06,150.93,76.06z"/>
</g>
<g>
	<g>
		<text transform="matrix(1.2061 0 0 1 506.9507 205.9959)"><tspan x="0" y="0" class="st5 st9 st10">MOKSHA</tspan><tspan x="-143.84" y="115.53" class="st5 st9 st10">CONSTRUCTION</tspan></text>
		<text transform="matrix(1 0 0 1 1100.5074 312.3504)" class="st5 st11 st12">™</text>
	</g>
</g>
</svg>
